<?xml version="1.0" encoding="utf-8"?>
<!-- Generator: Adobe Illustrator 16.0.0, SVG Export Plug-In . SVG Version: 6.00 Build 0)  -->
<!DOCTYPE svg PUBLIC "-//W3C//DTD SVG 1.1//EN" "http://www.w3.org/Graphics/SVG/1.1/DTD/svg11.dtd">
<svg version="1.1" id="Layer_1" xmlns="http://www.w3.org/2000/svg" xmlns:xlink="http://www.w3.org/1999/xlink" x="0px" y="0px"
	 width="1400px" height="980px" viewBox="0 0 1400 980" enable-background="new 0 0 1400 980" xml:space="preserve">
<rect fill="#FFFFFF" width="1400" height="980"/>
<g id="XMLID_2_">
	<g>
		<rect x="851.09" y="505.19" fill="#EB6689" width="548.91" height="62.81"/>
	</g>
	<g>
	</g>
</g>
<g id="XMLID_3_">
	<g>
		<rect x="915.68" y="480.12" fill="#EB6689" width="484.32" height="9.46"/>
	</g>
	<g>
	</g>
</g>
<rect y="177.13" fill="#F7931E" width="681.769" height="74.5"/>
<rect y="267.145" fill="#F7931E" width="640.094" height="12.96"/>
<g id="XMLID_1_">
	<g>
		<polygon fill="#1E9398" points="913.574,745.92 872.144,836.5 864.244,836.5 888.594,710.4 885.863,703.24 1010.924,727.04 
			1010.924,745.92 956.104,745.92 934.174,724 931.764,725.83 942.424,745.92 		"/>
		<polygon fill="#FFFFFF" points="914.804,473.92 921.363,467.37 917.644,463.65 927.094,463.65 934.124,470.68 939.693,470.68 
			943.594,466.78 944.094,466.28 946.844,466.28 946.844,493.06 934.264,510.37 934.264,505.75 934.264,505.19 934.264,495.54 
			927.094,495.54 927.094,490.71 937.884,490.71 937.884,484.96 934.254,484.96 932.644,486.57 927.523,481.44 932.813,476.14 
			929.403,472.73 918.284,483.85 908.344,473.92 		"/>
		<polygon fill="#E6E7E8" points="946.844,369.75 946.844,466.28 944.094,466.28 943.594,466.78 943.594,441.33 943.594,369.75 
			944.034,369.75 		"/>
		<polygon fill="#FFFFFF" points="930.674,379.29 930.674,377.8 930.674,363.71 919.264,363.71 921.534,360.19 939.664,360.19 
			946.844,367.38 946.844,369.75 944.034,369.75 943.594,369.75 939.204,369.75 932.804,381.34 930.674,380.17 		"/>
		<polygon fill="#9DCB3B" points="934.974,462.16 940.344,462.16 940.344,442.87 940.344,441.33 943.594,441.33 943.594,466.78 
			939.693,470.68 934.124,470.68 927.094,463.65 925.584,462.16 934.264,462.16 		"/>
		<polygon fill="#933536" points="940.344,422.19 924.844,395.75 932.804,381.34 939.204,369.75 943.594,369.75 943.594,441.33 
			940.344,441.33 		"/>
		<polygon fill="#FFFFFF" points="926.954,413.06 923.344,413.06 916.594,413.06 922.653,402.56 919.924,397.58 930.674,379.29 
			930.674,380.17 932.804,381.34 924.844,395.75 940.344,422.19 940.344,441.33 940.344,442.87 940.344,462.16 934.974,462.16 
			934.974,427.25 		"/>
		<polygon fill="#A64E30" points="932.644,486.57 934.254,484.96 937.884,484.96 937.884,490.71 927.094,490.71 927.094,495.54 
			934.264,495.54 934.264,505.19 928.403,505.19 928.403,500.87 920.014,497.19 920.014,485.53 918.284,483.85 929.403,472.73 
			932.813,476.14 927.523,481.44 		"/>
		<polygon fill="#933536" points="925.584,462.16 927.094,463.65 917.644,463.65 921.363,467.37 914.804,473.92 908.344,473.92 
			919.624,444.25 910.874,433.78 923.344,413.06 926.954,413.06 934.974,427.25 934.974,462.16 934.264,462.16 		"/>
		<polygon fill="#D1D3D4" points="928.403,511.34 928.403,505.75 928.403,505.19 934.264,505.19 934.264,505.75 934.264,510.37 
			925.264,522.75 920.113,522.75 927.674,512.33 		"/>
		<polygon fill="#F7A8A6" points="914.844,409.62 910.004,404.78 902.094,423.27 896.264,416.23 896.264,400.77 919.264,363.71 
			930.674,363.71 930.674,377.8 930.674,379.29 919.924,397.58 922.653,402.56 916.594,413.06 909.903,424.69 906.563,421.34 		"/>
		<polygon fill="#F7931E" points="912.153,509.92 913.174,508.9 916.884,505.19 927.674,505.19 928.403,505.19 928.403,505.75 
			928.403,511.34 927.674,512.33 917.414,518.07 904.054,518.07 904.054,515.45 906.624,515.45 		"/>
		<polygon fill="#FFFFFF" points="920.014,497.19 928.403,500.87 928.403,505.19 927.674,505.19 916.884,505.19 913.174,508.9 
			912.153,509.92 912.153,493.75 		"/>
		<polygon fill="#414042" points="917.414,518.07 927.674,512.33 920.113,522.75 906.264,522.75 902.824,519.31 904.054,518.07 		
			"/>
		<polygon fill="#501228" points="909.903,424.69 916.594,413.06 923.344,413.06 910.874,433.78 902.094,423.27 910.004,404.78 
			914.844,409.62 906.563,421.34 		"/>
		<polygon fill="#F16690" points="907.324,493.75 907.324,506.27 903.184,510.42 896.264,503.5 896.264,485.91 896.264,482.29 
			897.924,480.63 904.983,473.61 904.903,473.92 916.563,485.57 918.284,483.85 920.014,485.53 920.014,497.19 912.153,493.75 		"/>
		<polygon fill="#E6E7E8" points="910.874,433.78 919.624,444.25 908.344,473.92 918.284,483.85 916.563,485.57 904.903,473.92 
			904.983,473.61 910.403,452.17 897.174,436.08 896.264,436.99 896.264,431.75 896.264,416.23 902.094,423.27 		"/>
		<polygon fill="#A64E30" points="900.594,362.54 900.594,335.58 911.784,320.1 919.264,324.69 919.264,363.71 896.264,400.77 
			896.264,362.54 		"/>
		<polygon fill="#AC6932" points="881.594,248.09 873.264,239.76 873.264,223.4 876.074,226.21 893.514,243.92 907.424,243.92 
			907.424,189.66 907.424,187.23 919.264,198.8 919.264,208.5 919.264,262.25 919.264,324.69 911.784,320.1 900.594,335.58 
			900.594,362.54 896.264,362.54 896.264,343.52 892.304,341.37 892.304,328.98 903.714,313.87 887.113,304.18 878.324,295.4 
			878.324,269.02 885.094,262.25 875.094,262.25 875.094,254.58 		"/>
		<polygon points="907.324,506.27 907.324,493.75 912.153,493.75 912.153,509.92 906.624,515.45 904.054,515.45 904.054,518.07 
			902.824,519.31 891.594,508.08 891.594,486.96 896.264,482.29 896.264,485.91 896.264,503.5 903.184,510.42 		"/>
		<polygon fill="#F7A8A6" points="897.174,436.08 910.403,452.17 904.983,473.61 897.924,480.63 896.264,482.29 896.264,438.42 
			896.264,436.99 		"/>
		<path fill="#933536" d="M893.824,222.25h5.439v-0.58v-42.39l-12.09-11.78v9.63l-8.53,8.53L893.824,222.25z M866.403,216.54
			h-11.659l10.159-19.46l19.5-37.26v-5.64l4.69,4.69l4.94,4.94l13.39,13.19v10.23v2.43v54.26h-13.91l-17.439-17.71l-2.811-2.81
			L866.403,216.54z"/>
		<polygon points="890.844,157.12 903.403,144.56 904.644,145.8 894.034,163.81 889.094,158.87 890.174,157.79 		"/>
		<polygon fill="#FFD54C" points="903.714,313.87 892.304,328.98 892.304,309.37 887.113,304.18 		"/>
		<path fill="#7A519F" d="M872.344,121.64v-2.42h-3.29v2.42H872.344z M865.384,113.6h5.8l31.79,30.53l0.43,0.43l-12.56,12.56V153
			l-9.35-9.35h0.89v-4.07h-3.1v-6.52h-6.07h-0.87v-9.81h-6.96V113.6z"/>
		<polygon points="899.264,221.67 899.264,222.25 893.824,222.25 878.644,185.66 887.174,177.13 887.174,167.5 899.264,179.28 		"/>
		<polygon fill="#F2CFBB" points="896.264,438.42 896.264,482.29 891.594,486.96 891.594,441.66 896.264,436.99 		"/>
		<polygon fill="#FFFFFF" points="844.534,328.86 842.844,327.17 842.844,331.75 839.344,330.62 839.344,325.83 834.784,324.25 
			834.784,328.96 828.924,326.99 828.924,323.08 822.674,321.15 822.674,303.63 844.124,315.25 844.534,315.48 892.304,341.37 
			896.264,343.52 896.264,362.54 896.264,400.77 896.264,416.23 896.264,431.75 896.264,436.99 891.594,441.66 891.594,486.96 
			891.594,508.08 891.594,527.42 878.094,562.64 876.044,568 872.924,568 872.924,500.54 882.934,490.58 882.934,453.91 
			875.784,446.76 875.784,439.25 875.784,389.75 875.784,362.54 869.764,356.5 869.174,355.91 865.204,351.95 865.204,347.39 
			861.624,343.81 861.624,348.68 859.574,346.63 859.574,341.52 856.014,337.96 853.474,337.96 852.363,337.96 851.344,336.94 
			844.534,330.06 		"/>
		<polygon fill="#FFFFFF" points="844.534,283.84 823.514,237.49 823.504,237.46 823.504,237.45 848.094,216.54 854.744,216.54 
			866.403,216.54 873.264,223.4 873.264,239.76 881.594,248.09 875.094,254.58 875.094,262.25 885.094,262.25 878.324,269.02 
			878.324,295.4 887.113,304.18 892.304,309.37 892.304,328.98 892.304,341.37 844.534,315.48 		"/>
		<polygon points="881.494,143.65 890.844,153 890.844,157.12 890.174,157.79 889.094,158.87 884.403,154.18 884.403,151.19 
			880.704,155.85 879.284,155.85 879.284,145.37 879.284,144.75 879.284,143.06 879.284,141.44 		"/>
		<polygon fill="#FFD54C" points="465.864,826.46 454.094,817.25 454.094,785.71 505.264,761.42 505.264,787.25 519.344,796.25 
			586.264,838.25 589.454,839.13 665.784,860.17 719.204,874.89 736.844,879.75 763.974,854.77 865.374,761.4 872.004,727.84 
			878.094,697 878.094,682.9 885.863,703.24 888.594,710.4 864.244,836.5 858.304,867.25 736.844,947.25 553.164,894.82 		"/>
		<polygon fill="#FFFFFF" points="872.254,155.66 851.044,175.44 848.664,173.21 859.594,157.79 859.594,140.91 862.964,133.06 
			872.344,133.06 872.344,134.06 872.344,139.94 865.014,150.59 866.363,151.81 873.523,145.37 879.284,145.37 879.284,155.85 
			880.704,155.85 884.403,151.19 884.403,154.18 884.403,159.82 864.903,197.08 864.903,190.17 862.344,188.46 861.634,187.99 
			854.483,183.25 874.764,158.53 		"/>
		<path fill="#E2DFD3" d="M837.094,433.92v7.66l38.26,38.26v-21.66l-24.26-24.26H837.094z M806.464,429.96l-47.25-17.42v-2.62h38.21
			h2.01h23.32h21.06v16.66h11.62l18.84,18.67l1.511,1.51l7.149,7.15v36.67l-10.01,9.96v-6.7l-13.16-6.76l-0.67-0.34l-70.21-35.99
			h-10.33h-1.71v6.4l-13.87-18.52h43.49v-6.26V429.96z"/>
		<polygon fill="#FFFFFF" points="882.384,139.58 882.384,143.65 881.494,143.65 879.284,141.44 879.284,139.58 		"/>
		<polygon points="872.344,139.94 872.344,134.06 872.344,133.06 873.214,133.06 879.284,133.06 879.284,139.58 879.284,141.44 
			879.284,143.06 879.284,144.75 879.284,145.37 873.523,145.37 866.363,151.81 865.014,150.59 		"/>
		<polygon fill="#969E3C" points="780.594,697.75 769.344,697.75 768.104,697.75 788.374,682.92 789.844,682.92 832.523,682.92 
			848.273,640.5 849.004,638.56 849.884,636.25 869.974,583.84 876.044,568 878.094,562.64 878.094,682.9 878.094,697 
			872.004,727.84 843.844,756 822.974,735.13 803.594,735.13 803.594,765.33 796.054,765.33 781.344,765.33 780.594,765.33 		"/>
		<polygon fill="#F7931E" points="841.544,541.5 846.844,518.63 859.094,518.63 859.094,486.74 859.764,487.08 872.924,493.84 
			872.924,500.54 872.924,568 876.044,568 869.974,583.84 859.634,598.54 853.924,589.63 836.724,562.31 		"/>
		<polygon fill="#FFFFFF" points="855.434,426.58 843.813,426.58 843.813,409.92 857.594,409.92 857.594,406.35 838.514,402.08 
			848.574,397.5 848.574,394 861.153,394 872.764,398.34 872.764,394.75 858.264,389.75 872.764,389.75 875.784,389.75 
			875.784,439.25 875.784,446.76 874.273,445.25 		"/>
		<polygon fill="#F7931E" points="825.124,364.25 793.264,364.25 793.264,359.28 826.934,348.92 839.014,348.92 847.974,353.39 
			847.974,359.5 847.023,359 837.464,354.07 831.714,363.54 860.474,380.35 860.474,366.08 869.174,366.08 869.174,355.91 
			869.764,356.5 875.784,362.54 875.784,389.75 872.764,389.75 872.764,385.44 861.403,385.44 848.574,377.92 		"/>
		<polygon fill="#FFFFFF" points="875.354,458.18 875.354,479.84 837.094,441.58 837.094,433.92 851.094,433.92 		"/>
		<polygon points="820.454,174.6 817.384,177.85 814.563,180.82 812.924,174.75 817.054,173.14 820.554,171.78 845.014,162.26 
			845.014,167.5 847.693,168.65 842.153,181.58 843.424,182.55 851.044,175.44 872.254,155.66 874.764,158.53 854.483,183.25 
			861.634,187.99 850.054,203.26 818.534,199.5 818.534,197.08 824.084,195.7 839.174,191.93 839.174,189.33 820.004,189.33 
			817.954,186.17 826.174,180.95 837.034,174.04 836.653,172.26 826.174,173.77 		"/>
		<polygon fill="#622136" points="848.574,389.3 834.214,383.94 826.344,381 848.574,386.13 848.574,382.67 822.044,370.69 
			823.374,368.1 848.574,380.37 848.574,377.92 861.403,385.44 872.764,385.44 872.764,389.75 858.264,389.75 872.764,394.75 
			872.764,398.34 861.153,394 		"/>
		<polygon points="846.313,115.75 809.094,115.75 809.094,113.42 810.384,113.15 841.424,106.68 841.424,105.5 841.424,101.33 
			838.584,100.07 839.344,98.37 839.084,97.81 841.424,97.81 841.424,90.83 843.004,90.83 853.174,109.56 855.813,109.56 
			860.824,96.35 866.563,102.09 861.344,109.56 865.384,113.6 865.384,123.25 872.344,123.25 872.344,133.06 862.964,133.06 
			859.594,140.91 847.693,168.65 845.014,167.5 845.014,162.26 845.014,152.63 832.994,154.93 825.233,156.42 824.844,155.19 
			846.034,146 846.034,141.5 818.534,141.5 809.844,141.5 809.844,140.37 809.844,139.13 838.244,136.79 854.434,135.46 
			854.434,131.04 818.534,131.04 809.844,131.04 809.844,129.75 819.784,127.58 819.804,127.58 856.344,119.62 856.344,115.75 		"/>
		<rect x="869.054" y="119.22" fill="#FFFFFF" width="3.29" height="2.42"/>
		<polygon fill="#AC6932" points="803.594,774.17 803.594,765.33 803.594,735.13 822.974,735.13 843.844,756 872.004,727.84 
			865.374,761.4 763.974,854.77 736.844,807.58 		"/>
		<polygon fill="#622136" points="801.544,666.17 823.434,650.04 843.004,622.2 859.634,598.54 869.974,583.84 849.884,636.25 
			849.004,638.56 788.374,682.92 778.813,682.92 		"/>
		<polygon fill="#D8365A" points="869.174,355.91 869.174,366.08 860.474,366.08 847.974,359.5 847.974,353.39 860.474,359.63 
			865.204,359.63 865.204,351.95 		"/>
		<polygon fill="#F16690" points="861.624,348.68 861.624,343.81 865.204,347.39 865.204,351.95 865.204,359.63 860.474,359.63 
			860.474,350.37 856.474,346.37 856.474,342.06 852.363,337.96 853.474,337.96 856.014,337.96 859.574,341.52 859.574,346.63 		"/>
		<polygon fill="#933536" points="818.563,209.39 791.134,219.37 805.704,200.31 818.534,197.08 818.534,199.5 850.054,203.26 
			861.634,187.99 862.344,188.46 864.903,190.17 864.903,197.08 854.744,216.54 848.094,216.54 843.854,216.54 822.134,230.06 
			816.494,221.24 822.344,218.16 		"/>
		<polygon fill="#BCBEC0" points="861.153,394 848.574,394 848.574,389.3 		"/>
		<polygon fill="#7A519F" points="843.004,90.83 841.424,90.83 841.424,97.81 839.084,97.81 833.313,85.22 834.474,85.22 
			834.474,82.1 834.744,81.83 837.964,85.05 843.744,79.27 860.284,95.81 860.824,96.35 855.813,109.56 853.174,109.56 		"/>
		<polygon fill="#9DCB3B" points="847.974,359.5 860.474,366.08 860.474,380.35 831.714,363.54 837.464,354.07 847.023,359 		"/>
		<polygon fill="#933536" points="751.784,383.37 751.784,408 750.034,408 741.424,383.79 741.424,363.26 758.764,345.92 
			758.764,322.78 766.193,315.35 767.724,316.88 762.063,326.67 772.934,319.82 776.414,323.3 781.784,323.3 776.443,317.97 
			789.094,317.97 789.094,321.38 794.784,321.38 794.784,315.25 810.674,320.08 810.674,317.46 822.674,321.15 828.924,323.08 
			828.924,326.99 834.784,328.96 834.784,324.25 839.344,325.83 839.344,330.62 842.844,331.75 842.844,327.17 844.534,328.86 
			844.534,330.06 844.534,341.26 847.974,342.37 847.974,340.08 845.653,337.96 852.363,337.96 856.474,342.06 856.474,346.37 
			860.474,350.37 860.474,359.63 847.974,353.39 839.014,348.92 826.934,348.92 785.994,348.92 822.674,342.38 822.674,337.14 
			822.674,330.68 810.994,330.68 804.604,324.29 798.004,324.29 807.704,333.98 801.004,333.98 797.704,330.67 775.884,330.67 
			773.534,328.32 767.884,333.97 775.534,341.62 767.764,345.61 767.764,348.92 767.764,372.6 761.924,374.87 761.924,379.39 		"/>
		<polygon fill="#F7931E" points="826.924,594.29 823.834,594.29 828.034,574.69 828.204,573.94 830.813,562.31 836.724,562.31 
			853.924,589.63 859.634,598.54 843.004,622.2 		"/>
		<polygon fill="#D22255" points="848.664,173.21 851.044,175.44 843.424,182.55 842.153,181.58 847.693,168.65 859.594,140.91 
			859.594,157.79 		"/>
		<polygon fill="#F16690" points="785.844,460.32 778.554,450.75 788.884,450.75 859.094,486.74 859.094,518.63 846.844,518.63 
			841.384,512.33 851.134,512.33 851.134,506.53 830.004,485.4 824.863,485.4 846.844,507.37 844.974,509.24 826.744,491.01 
			824.684,493.06 829.273,498.36 829.644,498.79 825.424,503 834.214,514.41 832.764,521.9 813.474,496.58 		"/>
		<polygon fill="#AC6932" points="775.304,394 790.474,394 824.153,394 848.574,394 848.574,397.5 838.514,402.08 857.594,406.35 
			857.594,409.92 843.813,409.92 822.754,409.92 832.174,405.65 832.174,401.42 783.324,401.42 783.324,405.07 764.344,399.36 
			764.344,394 		"/>
		<polygon fill="#FFFFFF" points="856.344,115.75 856.344,119.62 819.804,127.58 819.784,127.58 819.784,121.78 846.313,115.75 		
			"/>
		<polygon fill="#969E3C" points="854.434,131.04 854.434,135.46 838.244,136.79 818.534,134.94 818.534,131.04 		"/>
		<polygon fill="#9DCB3B" points="851.344,336.94 852.363,337.96 845.653,337.96 847.974,340.08 847.974,342.37 844.534,341.26 
			844.534,330.06 		"/>
		<polygon fill="#F16690" points="836.534,506.74 829.644,498.79 829.273,498.36 824.684,493.06 826.744,491.01 844.974,509.24 
			846.844,507.37 824.863,485.4 830.004,485.4 851.134,506.53 851.134,512.33 841.384,512.33 		"/>
		<polygon fill="#A64E30" points="849.004,638.56 848.273,640.5 832.523,682.92 789.844,682.92 788.374,682.92 		"/>
		<polygon fill="#E6E7E8" points="848.574,389.3 848.574,394 824.153,394 834.214,383.94 		"/>
		<path d="M773.624,377.52v-2.65l-9.28,3.57l-2.42,0.95v-4.52l5.84-2.27l21.54-8.35h3.96h31.86l23.45,13.67v2.45l-25.2-12.27
			l-1.33,2.59l26.53,11.98v3.46l-22.23-5.13l-3.96,0.83v-4.04l-0.98-0.98h-4.029v4.14l-2.8,2.42l0.02,0.1l-0.42,0.09l-23.72,0.55
			l-1.431,0.03l-1.449-1.74l-0.95-6.42h-3.3l-6.7,6.3l-2.42,2.2l-3.801,3.46h-6.06v-4.69L773.624,377.52z M803.074,375.76v-3.23
			h-6.58v3.23H803.074z"/>
		<polygon fill="#F7C5AA" points="761.394,240.75 757.594,231.58 791.134,219.37 818.563,209.39 822.344,218.16 816.494,221.24 
			822.134,230.06 843.854,216.54 848.094,216.54 823.504,237.45 823.504,237.46 823.504,299.63 815.344,299.63 776.634,278.39 
			761.844,241.83 		"/>
		<polygon fill="#FFD54C" points="841.384,512.33 846.844,518.63 841.544,541.5 836.534,541.5 836.534,506.74 		"/>
		<polygon fill="#F7931E" points="819.784,121.78 819.784,127.58 800.034,127.58 800.034,122.91 809.094,120.87 809.094,115.75 
			846.313,115.75 		"/>
		<polygon fill="#8A68AD" points="818.704,161.54 806.844,164.43 806.844,161.82 819.604,157.97 818.924,155.61 804.214,158.73 
			804.214,155.75 818.534,148.5 818.534,143.58 818.534,143.06 818.534,141.5 846.034,141.5 846.034,146 824.844,155.19 
			825.233,156.42 832.994,154.93 833.344,156.78 833.714,157.27 820.483,165.72 819.424,164.06 		"/>
		<polygon fill="#F58026" points="835.384,159.51 833.714,157.27 833.344,156.78 832.994,154.93 845.014,152.63 845.014,162.26 
			820.554,171.78 		"/>
		<polygon fill="#FFFFFF" points="839.983,299.63 823.514,237.49 844.534,283.84 844.534,315.48 844.124,315.25 		"/>
		<polygon fill="#FFFFFF" points="823.504,299.63 839.983,299.63 844.124,315.25 822.674,303.63 815.344,299.63 		"/>
		<polygon fill="#9DCB3B" points="823.834,594.29 826.924,594.29 843.004,622.2 823.434,650.04 801.544,666.17 794.844,663.25 
			791.334,661.71 822.474,617.75 785.454,617.75 807.924,581.83 807.924,594.29 		"/>
		<polygon fill="#FFD54C" points="827.294,549.75 832.764,521.9 834.214,514.41 825.424,503 829.644,498.79 836.534,506.74 
			836.534,541.5 841.544,541.5 836.724,562.31 830.813,562.31 824.784,562.31 827.094,550.75 		"/>
		<polygon fill="#969E3C" points="809.554,109.87 803.354,94.6 817.254,94.6 822.214,105.5 841.424,105.5 841.424,106.68 
			810.384,113.15 809.844,110.58 		"/>
		<polygon fill="#F7931E" points="803.354,94.6 809.554,109.87 797.914,109.87 797.914,89.9 804.214,84.75 838.584,100.07 
			841.424,101.33 841.424,105.5 822.214,105.5 817.254,94.6 		"/>
		<polygon fill="#FFFFFF" points="823.514,237.49 839.983,299.63 823.504,299.63 823.504,237.46 		"/>
		<polygon points="725.153,72.25 772.374,72.25 772.384,72.25 782.554,78.2 788.504,72.25 788.514,72.25 791.584,72.25 
			809.474,81.87 809.474,67.44 816.344,67.44 813.284,74.8 821.284,82.52 821.284,72.69 823.983,72.69 826.834,90.25 828.483,90.25 
			833.313,85.22 839.084,97.81 839.344,98.37 838.584,100.07 804.214,84.75 797.914,89.9 795.674,91.73 795.674,99.25 
			783.004,102.16 770.233,105.09 768.474,105.5 767.184,102.02 778.943,91.19 780.204,90.03 790.724,92.44 790.724,85.5 
			777.403,82.64 771.344,85.8 745.674,80.47 720.104,75.17 719.924,75.13 719.924,74.75 719.924,72.25 		"/>
		<polygon fill="#8A68AD" points="839.174,189.33 839.174,191.93 824.084,195.7 820.594,190.25 820.004,189.33 		"/>
		<polygon fill="#D22255" points="785.074,145.75 765.374,177.55 750.854,166.81 793.443,128.5 787.954,128.5 786.903,128.5 
			783.304,128.5 797.193,116.38 788.974,108.15 783.004,102.16 795.674,99.25 795.674,91.73 797.914,89.9 797.914,109.87 
			809.554,109.87 809.844,110.58 810.384,113.15 809.094,113.42 809.094,115.75 809.094,120.87 800.034,122.91 800.034,127.58 
			819.784,127.58 809.844,129.75 809.844,131.04 818.534,131.04 818.534,134.94 838.244,136.79 809.844,139.13 809.844,140.37 
			809.844,141.5 818.534,141.5 818.534,143.06 818.534,143.58 798.744,143.58 788.254,160.5 786.004,159.12 790.164,148.76 		"/>
		<polygon fill="#8A68AD" points="826.174,178.05 826.174,173.77 836.653,172.26 837.034,174.04 826.174,180.95 826.174,178.67 		
			"/>
		<polygon fill="#FFFFFF" points="833.714,157.27 835.384,159.51 820.554,171.78 817.054,173.14 815.813,168.71 820.483,165.72 		
			"/>
		<polygon fill="#7A519F" points="831.594,78.68 834.744,81.83 834.474,82.1 832.264,82.1 832.264,85.22 833.313,85.22 
			828.483,90.25 826.834,90.25 823.983,72.69 825.474,72.69 831.594,72.69 		"/>
		<polygon fill="#FFFFFF" points="833.313,85.22 832.264,85.22 832.264,82.1 834.474,82.1 834.474,85.22 		"/>
		<polygon fill="#F7931E" points="821.494,385.85 826.344,381 834.214,383.94 824.153,394 790.474,394 790.474,385.85 		"/>
		<polygon fill="#7A519F" points="824.974,525.23 813.474,509.88 813.474,496.58 832.764,521.9 827.294,549.75 824.974,549.75 
			824.974,537.89 		"/>
		<polygon fill="#933536" points="832.174,401.42 832.174,405.65 822.754,409.92 799.434,409.92 783.324,405.07 783.324,401.42 		
			"/>
		<polygon fill="#FFD54C" points="830.813,562.31 828.204,573.94 822.474,573.94 824.653,562.95 824.784,562.31 		"/>
		<polygon fill="#9DCB3B" points="807.924,554.32 800.254,554.32 798.884,554.32 803.214,549.75 824.974,549.75 827.294,549.75 
			827.094,550.75 824.784,562.31 824.653,562.95 822.474,573.94 828.204,573.94 828.034,574.69 823.834,594.29 807.924,594.29 
			807.924,581.83 		"/>
		<polygon fill="#D8365A" points="826.934,348.92 793.264,359.28 793.264,355.67 		"/>
		<polygon fill="#D8365A" points="785.994,348.92 826.934,348.92 793.264,355.67 793.264,359.28 793.264,364.25 789.304,364.25 
			767.764,372.6 767.764,348.92 		"/>
		<polygon fill="#622136" points="822.384,381.83 826.344,381 821.494,385.85 790.474,385.85 790.474,385.11 790.454,384.11 
			814.174,383.56 814.594,383.47 		"/>
		<polygon fill="#F58026" points="818.414,181.44 826.174,178.05 826.174,178.67 826.174,180.95 817.954,186.17 820.004,189.33 
			820.594,190.25 824.084,195.7 818.534,197.08 805.704,200.31 814.764,188.46 812.794,186.01 812.514,185.67 804.653,175.92 
			815.153,169.13 815.813,168.71 817.054,173.14 812.924,174.75 814.563,180.82 817.384,177.85 		"/>
		<polygon fill="#9F73B2" points="826.174,173.77 826.174,178.05 818.414,181.44 817.384,177.85 820.454,174.6 		"/>
		<polygon fill="#9DCB3B" points="809.634,542.96 808.113,537.89 824.974,537.89 824.974,549.75 803.214,549.75 807.754,544.96 
			808.344,544.34 		"/>
		<polygon fill="#9DCB3B" points="804.464,517.93 813.474,517.93 813.474,511.75 813.474,509.88 824.974,525.23 824.974,537.89 
			808.113,537.89 805.344,528.63 800.674,528.63 800.674,528.03 800.674,512.55 		"/>
		<polygon fill="#969E3C" points="772.374,67.85 763.424,62.96 763.424,55.87 822.884,65.93 823.844,71.85 823.983,72.69 
			821.284,72.69 821.284,82.52 813.284,74.8 816.344,67.44 809.474,67.44 809.474,81.87 791.584,72.25 792.514,72.25 800.714,72.25 
			800.714,70.61 795.764,65.66 788.514,65.66 788.514,72.24 788.514,72.25 788.504,72.25 782.554,78.2 772.384,72.25 772.374,72.25 
					"/>
		<polygon points="775.534,341.62 767.884,333.97 773.534,328.32 775.884,330.67 797.704,330.67 801.004,333.98 804.164,337.14 
			822.674,337.14 822.674,342.38 785.994,348.92 767.764,348.92 767.764,345.61 		"/>
		<polygon points="807.704,333.98 798.004,324.29 804.604,324.29 810.994,330.68 822.674,330.68 822.674,337.14 804.164,337.14 
			801.004,333.98 		"/>
		<polygon fill="#FFFFFF" points="810.674,317.46 810.674,320.08 794.784,315.25 794.784,299.63 813.174,299.63 815.344,299.63 
			822.674,303.63 822.674,321.15 		"/>
		<polygon fill="#FFD54C" points="822.474,617.75 791.334,661.71 765.134,650.22 785.454,617.75 		"/>
		<polygon fill="#58595B" points="817.374,380.95 817.374,376.81 821.403,376.81 822.384,377.79 822.384,381.83 814.594,383.47 
			814.574,383.37 		"/>
		<polygon fill="#D22255" points="804.653,175.92 812.514,185.67 812.794,186.01 794.344,197.5 783.854,180.05 819.424,164.06 
			820.483,165.72 815.813,168.71 815.153,169.13 		"/>
		<polygon fill="#F58026" points="806.844,161.82 806.844,164.43 776.233,171.87 775.594,170.25 789.994,162.96 804.214,155.75 
			804.214,158.73 818.924,155.61 819.604,157.97 		"/>
		<polygon points="748.924,199.5 704.403,234.81 702.094,232.5 720.344,215.25 711.764,215.25 721.004,206.28 721.004,193.11 
			750.494,156.25 788.974,108.15 797.193,116.38 783.304,128.5 769.924,140.17 774.174,140.17 787.954,128.5 793.443,128.5 
			750.854,166.81 765.374,177.55 785.074,145.75 790.164,148.76 786.004,159.12 788.254,160.5 788.974,160.94 789.994,162.96 
			775.594,170.25 776.233,171.87 806.844,164.43 818.704,161.54 819.424,164.06 783.854,180.05 794.344,197.5 812.794,186.01 
			814.764,188.46 805.704,200.31 791.134,219.37 757.594,231.58 756.054,227.84 785.214,211.98 781.604,204.78 735.214,226.87 
			733.094,223.87 766.094,199.5 		"/>
		<polygon points="804.214,155.75 789.994,162.96 788.974,160.94 788.254,160.5 798.744,143.58 818.534,143.58 818.534,148.5 		"/>
		<polygon fill="#E2DFD3" points="766.193,315.35 758.764,322.78 757.414,324.13 750.924,330.67 702.023,330.67 691.514,317.5 
			691.514,272.92 766.684,272.92 776.634,278.39 815.344,299.63 813.174,299.63 794.784,299.63 794.784,315.25 794.784,321.38 
			789.094,321.38 789.094,317.97 776.443,317.97 781.784,323.3 776.414,323.3 772.934,319.82 762.063,326.67 767.724,316.88 		"/>
		<polygon fill="#40C4E0" points="800.674,512.55 792.994,501.63 793.844,501.63 807.294,501.63 813.474,509.88 813.474,511.75 
			813.474,517.93 804.464,517.93 		"/>
		<polygon fill="#8A68AD" points="807.294,501.63 785.844,472.99 785.844,460.32 813.474,496.58 813.474,509.88 		"/>
		<polygon fill="#622136" points="808.113,537.89 809.634,542.96 808.344,544.34 807.754,544.96 806.544,540.99 806.344,540.33 
			804.094,533 800.674,534.15 800.674,528.63 805.344,528.63 		"/>
		<polygon fill="#E2DFD3" points="689.684,629.78 643.214,614.44 643.214,562.58 643.214,561.82 652.094,565.94 652.094,566.56 
			652.094,575.75 652.094,586 672.554,586 672.554,604.25 672.554,611.08 685.154,611.08 734.014,611.08 745.464,611.08 
			746.983,611.08 758.494,611.08 771.344,597.87 758.403,597.87 757.704,597.87 765.304,589.79 765.653,589.42 769.424,585.42 
			770.414,584.37 798.884,554.32 800.254,554.32 807.924,554.32 807.924,581.83 785.454,617.75 743.384,617.75 743.384,640.69 
			740.494,639.42 684.704,639.42 		"/>
		<polygon fill="#A64E30" points="803.214,549.75 798.884,554.32 797.974,554.32 780.244,554.32 787.344,550.63 786.594,548.67 
			806.544,540.99 807.754,544.96 		"/>
		<polygon fill="#89CCDE" points="792.994,501.63 765.264,501.63 759.674,501.63 759.674,492.44 763.344,490 765.403,488.63 
			766.474,488.63 769.094,488.63 771.874,488.63 781.784,482 781.784,478.33 781.784,477.75 781.784,477.74 781.784,467.57 
			785.844,472.99 807.294,501.63 793.844,501.63 		"/>
		<polygon points="784.914,543.85 783.744,540.5 783.534,539.89 795.903,535.75 797.924,535.07 800.674,534.15 804.094,533 
			806.344,540.33 806.544,540.99 786.594,548.67 		"/>
		<polygon fill="#FFD54C" points="806.464,432.37 806.464,438.63 762.974,438.63 759.214,433.62 759.214,412.54 806.464,429.96 		
			"/>
		<polygon fill="#C67B36" points="667.354,778.25 665.924,775.58 660.464,765.33 677.514,765.33 746.424,765.33 769.344,765.33 
			780.594,765.33 781.344,765.33 796.054,765.33 803.594,765.33 803.594,774.17 736.844,807.58 763.974,854.77 736.844,879.75 
			719.204,874.89 		"/>
		<rect x="796.494" y="372.53" fill="#6D6E71" width="6.58" height="3.23"/>
		<polygon fill="#9F73B2" points="748.854,676.44 764.724,650.88 765.134,650.22 791.334,661.71 794.844,663.25 801.544,666.17 
			778.813,682.92 669.124,682.92 667.074,682.92 663.204,680.88 673.344,661.42 673.564,661 674.124,661 699.264,661 721.004,661 		
			"/>
		<polygon fill="#FFFFFF" points="788.514,72.24 788.514,65.66 795.764,65.66 800.714,70.61 800.714,72.25 792.514,72.25 
			791.584,72.25 788.514,72.25 		"/>
		<polygon fill="#FFFFFF" points="762.304,521.42 747.764,522.77 747.764,517.4 759.674,516.35 762.344,516.11 800.674,528.63 
			800.674,534.15 797.924,535.07 780.804,528.51 		"/>
		<polygon fill="#FDD4B5" points="759.674,507.58 759.674,501.63 765.264,501.63 792.994,501.63 800.674,512.55 800.674,528.03 
			800.674,528.63 762.344,516.11 759.674,516.35 759.674,512.44 		"/>
		<polygon fill="#9DCB3B" points="759.214,412.54 759.214,433.62 759.204,433.6 750.034,408 751.784,408 751.784,383.37 
			761.924,379.39 761.924,380.31 761.924,384.77 756.384,388.25 756.384,396.96 764.344,399.36 783.324,405.07 799.434,409.92 
			797.424,409.92 759.214,409.92 		"/>
		<polygon fill="#F6B328" points="768.363,569.19 782.454,564.68 782.454,559.31 770.634,559.31 780.233,554.33 780.233,554.32 
			780.244,554.32 797.974,554.32 798.884,554.32 770.414,584.37 758.693,584.37 768.334,574.08 		"/>
		<polygon fill="#933536" points="781.974,535.48 781.874,535.19 780.464,531.14 780.144,530.22 780.804,528.51 797.924,535.07 
			795.903,535.75 783.534,539.89 783.384,539.46 		"/>
		<polygon fill="#FFFFFF" points="766.474,91.08 766.474,88.37 771.344,85.8 777.403,82.64 790.724,85.5 790.724,92.44 
			780.204,90.03 778.943,91.19 766.474,91.19 		"/>
		<polygon fill="#9F73B2" points="787.354,387.94 789.443,385.85 790.474,385.85 790.474,394 775.304,394 775.304,387.94 		"/>
		<polygon fill="#622136" points="775.304,387.94 770.403,387.94 774.204,384.48 789.023,384.14 790.454,384.11 790.474,385.11 
			790.474,385.85 789.443,385.85 787.354,387.94 		"/>
		<path fill="#58595B" d="M787.574,382.4l1.449,1.74l-14.819,0.34l2.42-2.2l6.7-6.3h3.3L787.574,382.4z M785.534,382.94v-3.02h-3.36
			v3.02H785.534z"/>
		<path fill="#E85825" d="M749.714,140.74l2.939,2.84l18.36-22.8l-2.15-1.88L749.714,140.74z M783.004,102.16l5.97,5.99
			l-38.479,48.1h-5.9v-5.12v-6.21l-6,6.53v-5.95l23.25-26.19v-4.64v-1.3l0.75-0.75l7.64-7.53L783.004,102.16z"/>
		<polygon points="778.813,682.92 788.374,682.92 768.104,697.75 701.594,697.75 695.214,697.75 667.074,682.92 669.124,682.92 		
			"/>
		<polygon fill="#969E3C" points="787.954,128.5 774.174,140.17 769.924,140.17 783.304,128.5 786.903,128.5 		"/>
		<polygon fill="#969E3C" points="773.854,551.67 773.844,551.67 773.844,545.46 774.334,545.46 780.174,545.46 780.174,550 
			784.994,550 784.914,543.85 786.594,548.67 787.344,550.63 780.244,554.32 780.233,554.32 780.233,554.33 777.574,551.67 		"/>
		<polygon fill="#7A519F" points="785.844,460.32 785.844,472.99 781.784,467.57 781.784,463.75 776.844,457.15 776.844,450.75 
			778.554,450.75 		"/>
		<rect x="782.174" y="379.92" fill="#6D6E71" width="3.36" height="3.02"/>
		<polygon fill="#FFFFFF" points="785.454,617.75 765.134,650.22 743.384,640.69 743.384,617.75 		"/>
		<polygon fill="#8A68AD" points="711.174,199.59 721.004,190.06 721.004,193.11 721.004,206.28 711.764,215.25 720.344,215.25 
			702.094,232.5 704.403,234.81 748.924,199.5 766.094,199.5 733.094,223.87 735.214,226.87 781.604,204.78 785.214,211.98 
			756.054,227.84 757.594,231.58 761.394,240.75 678.184,240.75 678.184,231.6 		"/>
		<polygon fill="#9DCB3B" points="780.174,545.46 780.174,543.85 784.914,543.85 784.994,550 780.174,550 		"/>
		<polygon points="773.844,543.38 770.974,540.5 783.744,540.5 784.914,543.85 780.174,543.85 780.174,545.46 774.334,545.46 
			773.844,545.46 		"/>
		<polygon fill="#B6753B" points="752.193,540.5 715.964,540.5 706.813,537.81 706.813,526.5 727.714,526.5 745.224,526.5 
			754.193,535.48 781.974,535.48 783.384,539.46 783.534,539.89 783.744,540.5 770.974,540.5 765.584,540.5 		"/>
		<polygon fill="#FFFFFF" points="782.454,559.31 782.454,564.68 768.363,569.19 768.344,569.19 759.594,569.19 759.594,565.05 
			770.634,559.31 		"/>
		<polygon fill="#969E3C" points="781.874,535.19 781.974,535.48 754.193,535.48 745.224,526.5 768.313,526.5 780.464,531.14 		"/>
		<polygon fill="#8A68AD" points="774.653,482.48 781.784,477.75 781.784,478.33 781.784,482 771.874,488.63 769.094,488.63 
			766.474,488.63 765.403,488.63 		"/>
		<polygon fill="#E2DFD3" points="693.424,481.45 680.754,483.68 671.974,476.41 671.974,471.41 730.604,461.25 773.874,466.44 
			781.784,477.74 781.784,477.75 774.653,482.48 770.714,478.54 767.304,478.54 757.544,478.54 756.174,478.54 750.394,478.54 
			749.344,478.54 709.854,478.54 703.054,479.75 702.304,479.88 		"/>
		<polygon fill="#FFFFFF" points="697.154,436.53 716.074,417.5 734.164,417.5 759.214,438.63 761.924,438.63 762.974,438.63 
			776.844,457.15 781.784,463.75 781.784,467.57 781.784,477.74 773.874,466.44 730.604,461.25 671.974,471.41 671.974,461.87 		"/>
		<polygon fill="#AC6932" points="745.224,526.5 727.714,526.5 727.714,524.63 747.764,522.77 762.304,521.42 780.804,528.51 
			780.144,530.22 780.464,531.14 768.313,526.5 		"/>
		<polygon fill="#933536" points="746.424,742 746.424,732.37 746.424,713.67 765.983,699.3 768.104,697.75 769.344,697.75 
			780.594,697.75 780.594,765.33 769.344,765.33 746.424,765.33 		"/>
		<polygon fill="#9DCB3B" points="748.594,556.69 760.214,556.69 763.313,556.69 763.324,556.69 763.324,556.68 773.844,551.67 
			773.854,551.67 777.574,551.67 780.233,554.33 770.634,559.31 749.054,559.31 748.584,559.31 748.584,556.69 		"/>
		<polygon fill="#F58026" points="767.184,102.02 768.474,105.5 770.233,105.09 762.594,112.62 761.844,113.37 761.844,92.25 
			766.474,91.08 766.474,91.19 778.943,91.19 		"/>
		<polygon fill="#F7C5AA" points="678.184,266.55 678.184,256.5 678.184,240.75 761.394,240.75 761.844,241.83 776.634,278.39 
			766.684,272.92 764.584,271.77 741.273,259 691.514,259 691.514,272.92 671.554,272.92 		"/>
		<polygon fill="#F7931E" points="775.304,387.94 775.304,394 764.344,394 764.344,387.94 770.403,387.94 		"/>
		<polygon fill="#622136" points="748.554,488.63 742.554,488.63 746.523,485.96 757.244,485.96 767.304,478.54 770.714,478.54 
			774.653,482.48 765.403,488.63 		"/>
		<polygon fill="#FFFFFF" points="773.844,545.46 773.844,551.67 767.714,551.67 767.714,551.44 767.714,545.46 		"/>
		<polygon fill="#9F73B2" points="767.714,545.46 767.424,545.46 763.324,545.46 763.324,543.86 765.584,540.5 770.974,540.5 
			773.844,543.38 773.844,545.46 		"/>
		<polygon fill="#FFD54C" points="767.714,551.67 773.844,551.67 763.324,556.68 763.324,545.46 767.424,545.46 767.714,545.46 
			767.714,551.44 		"/>
		<polygon fill="#622136" points="773.624,374.87 773.624,377.52 764.344,383.25 761.924,384.77 761.924,380.31 761.924,379.39 
			764.344,378.44 		"/>
		<polygon fill="#9DCB3B" points="745.233,55.13 746.134,53.5 763.424,62.96 772.374,67.85 772.374,72.25 771.014,71.45 
			748.574,58.34 744.714,56.08 		"/>
		<polygon fill="#969E3C" points="771.014,71.45 772.374,72.25 725.153,72.25 725.153,65.13 732.844,65.13 732.844,59.28 
			733.344,59.25 748.574,58.34 		"/>
		<polygon fill="#F16690" points="751.754,604.25 757.434,598.16 757.704,597.87 758.403,597.87 771.344,597.87 758.494,611.08 
			746.983,611.08 745.464,611.08 751.344,604.69 		"/>
		<polygon fill="#F58026" points="766.474,88.37 766.474,91.08 761.844,92.25 749.344,95.37 749.344,91.04 759.714,86.96 
			746.764,84.25 745.674,80.47 771.344,85.8 		"/>
		<polygon fill="#7D2829" points="768.863,118.9 771.014,120.78 752.653,143.58 749.714,140.74 		"/>
		<polygon fill="#F2CFBB" points="680.064,555.21 682.134,555.21 696.514,556.92 698.594,556.92 718.403,559.31 724.214,559.31 
			724.624,559.31 748.584,559.31 749.054,559.31 770.634,559.31 759.594,565.05 759.594,569.19 768.344,569.19 750.903,574.76 
			703.773,574.76 697.384,568.37 684.094,568.37 684.094,567.92 684.094,562.87 668.654,556.62 668.654,555.69 668.654,555.21 
			669.124,555.21 		"/>
		<polygon fill="#414042" points="770.414,584.37 769.424,585.42 765.653,589.42 754.014,589.42 758.284,584.81 758.693,584.37 		
			"/>
		<polygon fill="#EB899C" points="768.363,569.19 768.334,574.08 758.693,584.37 691.864,584.37 684.094,580.77 684.094,568.37 
			697.384,568.37 703.773,574.76 750.903,574.76 768.344,569.19 		"/>
		<polygon fill="#622136" points="685.904,699.12 685.904,697.75 695.214,697.75 701.594,697.75 768.104,697.75 765.983,699.3 
			746.424,713.67 746.424,732.37 746.424,742 694.854,742 685.904,733.82 685.904,723.81 		"/>
		<polygon points="767.304,478.54 757.244,485.96 746.523,485.96 757.544,478.54 		"/>
		<polygon fill="#F7C5AA" points="766.684,272.92 691.514,272.92 691.514,259 741.273,259 764.584,271.77 		"/>
		<polygon fill="#8A68AD" points="765.653,589.42 765.304,589.79 757.704,597.87 746.903,597.87 746.193,597.87 754.014,589.42 		
			"/>
		<polygon points="758.294,541.94 750.754,541.94 752.193,540.5 765.584,540.5 763.324,543.86 761.824,546.09 760.023,546.09 		"/>
		<polygon fill="#8A68AD" points="745.983,497.58 735.773,497.58 748.554,488.63 765.403,488.63 763.344,490 759.674,492.44 
			747.764,500.36 747.764,499.58 745.544,498.56 		"/>
		<polygon fill="#40C4E0" points="743.384,640.69 765.134,650.22 764.724,650.88 748.854,676.44 721.004,661 699.264,661 
			674.124,661 673.564,661 684.704,639.42 740.494,639.42 		"/>
		<polygon fill="#AC6932" points="761.924,384.77 764.344,383.25 764.344,387.94 764.344,394 764.344,399.36 756.384,396.96 
			756.384,388.25 		"/>
		<polygon fill="#9DCB3B" points="763.324,545.46 763.324,556.68 763.324,556.69 763.313,556.69 760.214,556.69 760.214,546.56 
			760.023,546.09 761.824,546.09 763.324,543.86 		"/>
		<polygon fill="#FFFFFF" points="699.474,425.56 703.254,407.63 707.824,385.96 710.863,371.54 712.764,362.54 733.924,362.54 
			741.054,382.75 741.424,383.79 741.424,385 741.424,409.86 759.204,433.6 759.214,433.62 762.974,438.63 761.924,438.63 
			759.214,438.63 734.164,417.5 716.074,417.5 697.154,436.53 		"/>
		<polygon fill="#7D2829" points="694.334,178.14 672.484,212.35 668.764,209.75 694.184,165.08 742.824,116.52 744.054,117.78 
			705.134,166.25 706.863,168.29 761.844,113.37 761.844,114.67 761.844,119.31 738.594,145.5 738.594,151.45 683.654,211.26 
			681.364,209.71 695.624,178.94 		"/>
		<path d="M676.024,175.84l-31.66,50.09l3.35,2.57l31.98-50.14l21.72-34.05l33.739-32.82l-3.899-4.7l-23.97,19.61l-11.331,17.91
			L676.024,175.84z M612.994,250.68l-26.04-25.37l16.02-19.58l39.87-48.73l6.25,4.24l-17.12,31.13l3.92,2.53l81.03-91.44l1.61-0.4
			l30.81-7.69l12.5-3.12v21.12l-54.98,54.92l-1.729-2.04l38.92-48.47l-1.229-1.26l-48.641,48.56l-25.42,44.67l3.72,2.6l21.85-34.21
			l1.29,0.8l-14.26,30.77l2.29,1.55l54.94-59.81l6-6.53v6.21l-33.42,44.03v4.43l-32.99,32.01l-14.76,14.32l-39.43,38.25v-12.44
			l-15.53,20.85l-4.94-3.29L612.994,250.68z"/>
		<polygon fill="#FFFFFF" points="744.164,548.57 745.014,547.69 745.313,547.39 745.594,547.67 746.443,548.52 751.354,543.87 
			756.884,543.87 757.794,546.09 759.674,546.09 760.023,546.09 760.214,546.56 760.214,556.69 748.594,556.69 748.584,556.69 
			746.313,554.41 742.903,557.81 726.914,557.81 724.214,554.89 724.214,549.1 727.233,546.08 741.674,546.08 		"/>
		<polygon fill="#8A68AD" points="751.354,543.87 746.443,548.52 745.594,547.67 745.313,547.39 750.754,541.94 758.294,541.94 
			760.023,546.09 759.674,546.09 757.794,546.09 756.884,543.87 		"/>
		<polygon fill="#8A68AD" points="749.344,91.04 749.344,95.37 718.534,103.06 718.534,97.72 747.313,86.18 746.764,84.25 
			759.714,86.96 		"/>
		<polygon fill="#40C4E0" points="752.974,507.58 759.674,507.58 759.674,512.44 759.674,516.35 747.764,517.4 747.764,500.36 
			759.674,492.44 759.674,501.63 752.974,501.63 		"/>
		<rect x="752.974" y="501.63" fill="#89CCDE" width="6.7" height="5.95"/>
		<polygon fill="#FFD54C" points="750.034,408 759.204,433.6 741.424,409.86 741.424,385 741.424,383.79 		"/>
		<polygon fill="#F7931E" points="702.023,330.67 750.924,330.67 757.414,324.13 758.764,322.78 758.764,345.92 741.424,363.26 
			741.424,383.79 741.054,382.75 733.924,362.54 712.764,362.54 710.863,371.54 696.904,352.36 696.904,330.67 700.594,330.67 		"/>
		<polygon fill="#414042" points="758.693,584.37 758.284,584.81 754.014,589.42 702.764,589.42 691.864,584.37 		"/>
		<polygon fill="#F16690" points="757.704,597.87 757.434,598.16 751.754,604.25 741.534,604.25 740.313,604.25 740.983,603.52 
			745.784,598.31 746.193,597.87 746.903,597.87 		"/>
		<polygon fill="#F7931E" points="725.964,495.13 723.094,495.13 718.943,486.71 719.494,486.94 730.974,491.66 750.394,478.54 
			756.174,478.54 757.544,478.54 746.523,485.96 742.554,488.63 732.903,495.13 		"/>
		<polygon fill="#69448B" points="684.094,580.77 691.864,584.37 702.764,589.42 754.014,589.42 746.193,597.87 725.313,597.87 
			707.514,597.87 697.224,597.87 672.554,585.73 672.554,575.42 		"/>
		<polygon fill="#622136" points="718.563,543.72 708.594,543.72 708.594,540.5 715.964,540.5 752.193,540.5 750.754,541.94 
			745.313,547.39 742.403,544.49 741.474,544.49 726.914,544.49 724.214,547.19 724.214,546.56 721.403,546.56 		"/>
		<polygon fill="#9F73B2" points="751.754,604.25 751.344,604.69 745.464,611.08 734.014,611.08 740.313,604.25 741.534,604.25 		
			"/>
		<polygon fill="#7D2829" points="721.004,190.06 711.174,199.59 711.174,195.16 744.594,151.13 744.594,156.25 750.494,156.25 
			721.004,193.11 		"/>
		<polygon fill="#F16690" points="710.304,483.17 702.304,479.88 703.054,479.75 709.854,478.54 749.344,478.54 750.394,478.54 
			730.974,491.66 719.494,486.94 718.943,486.71 		"/>
		<polygon fill="#C1AA3E" points="742.903,557.81 746.313,554.41 748.584,556.69 748.584,559.31 724.624,559.31 724.214,559.31 
			724.214,554.89 726.914,557.81 		"/>
		<polygon fill="#933536" points="704.034,55.75 694.054,55.75 692.214,55.75 692.214,49.13 692.214,48.08 692.214,40.69 
			702.594,40.69 698.004,36.1 700.214,33.88 712.084,43.68 713.483,42.28 703.714,33.33 711.224,33.33 738.674,55.13 745.233,55.13 
			744.714,56.08 748.574,58.34 733.344,59.25 732.844,59.28 704.034,61.1 704.034,60.81 		"/>
		<polygon fill="#933536" points="748.554,488.63 735.773,497.58 730.574,497.58 725.964,495.13 732.903,495.13 742.554,488.63 		
			"/>
		<polygon fill="#FFD54C" points="705.443,519.46 690.844,522.49 690.844,517.39 700.794,515.04 707.534,513.45 709.284,513.04 
			727.714,519.18 747.764,517.4 747.764,522.77 727.714,524.63 		"/>
		<polygon fill="#8A68AD" points="719.304,495.13 721.474,495.58 721.474,502.28 721.474,507.58 739.273,512.9 742.983,504.18 
			743.174,503.73 745.544,498.56 747.764,499.58 747.764,500.36 747.764,517.4 727.714,519.18 709.284,513.04 707.534,513.45 
			707.534,492.69 714.664,494.17 		"/>
		<polygon points="707.954,101.97 661.214,155.75 658.174,153.27 701.653,93.85 706.504,92.81 746.764,84.25 747.313,86.18 
			718.534,97.72 		"/>
		<polygon fill="#7A519F" points="745.674,80.47 746.764,84.25 706.504,92.81 706.254,91.64 704.943,90.33 720.104,75.17 		"/>
		<polygon fill="#933536" points="654.604,715.14 662.094,715.14 662.094,713 662.094,712.06 685.904,733.82 694.854,742 
			746.424,742 746.424,765.33 677.514,765.33 654.594,742.42 654.594,715.14 		"/>
		<polygon fill="#9F73B2" points="746.193,597.87 745.784,598.31 740.983,603.52 740.313,604.25 725.313,604.25 725.313,597.87 		
			"/>
		<polygon fill="#9F73B2" points="735.773,497.58 745.983,497.58 745.544,498.56 743.174,503.73 742.983,504.18 730.574,497.58 		
			"/>
		<polygon fill="#969E3C" points="727.233,546.08 724.214,549.1 724.214,547.19 726.914,544.49 741.474,544.49 742.403,544.49 
			745.313,547.39 745.014,547.69 744.164,548.57 741.674,546.08 		"/>
		<polygon fill="#933536" points="730.574,497.58 742.983,504.18 739.273,512.9 721.474,507.58 721.474,502.28 721.474,495.58 
			719.304,495.13 723.094,495.13 725.964,495.13 		"/>
		<polygon fill="#8A68AD" points="707.514,604.25 707.514,597.87 725.313,597.87 725.313,604.25 740.313,604.25 734.014,611.08 
			685.154,611.08 685.154,604.25 		"/>
		<polygon fill="#D22255" points="701.414,144.31 695.954,144.31 707.284,126.4 731.254,106.79 735.153,111.49 		"/>
		<polygon fill="#FFFFFF" points="713.474,65.79 704.034,65.79 704.034,61.1 732.844,59.28 732.844,65.13 725.153,65.13 
			725.153,72.25 719.924,72.25 714.403,72.25 		"/>
		<polygon fill="#AC6932" points="706.813,526.5 684.094,526.5 683.574,523.99 690.844,522.49 705.443,519.46 727.714,524.63 
			727.714,526.5 		"/>
		<polygon fill="#969E3C" points="724.214,554.89 724.214,559.31 718.403,559.31 720.454,557.26 721.403,556.31 721.403,546.56 
			724.214,546.56 724.214,547.19 724.214,549.1 		"/>
		<polygon fill="#622136" points="718.943,486.71 723.094,495.13 719.304,495.13 714.664,494.17 		"/>
		<polygon fill="#FFFFFF" points="721.403,546.56 721.403,556.31 720.454,557.26 700.504,554.87 700.504,553.83 700.504,546.56 		
			"/>
		<polygon fill="#969E3C" points="699.044,545.58 700.204,543.72 700.504,543.72 708.594,543.72 718.563,543.72 721.403,546.56 
			700.504,546.56 698.594,546.56 698.594,545.58 		"/>
		<polygon fill="#9DCB3B" points="698.594,554.87 698.594,546.56 700.504,546.56 700.504,553.83 700.504,554.87 720.454,557.26 
			718.403,559.31 698.594,556.92 		"/>
		<polygon fill="#8A68AD" points="709.494,80.7 710.023,80.39 719.924,74.75 719.924,75.13 720.104,75.17 704.943,90.33 
			700.464,85.85 		"/>
		<polygon fill="#622136" points="708.563,77.84 707.403,74.19 714.534,73.17 714.403,72.25 719.924,72.25 719.924,74.75 
			710.023,80.39 709.494,80.7 708.714,78.31 		"/>
		<polygon fill="#AC6932" points="719.204,874.89 665.784,860.17 665.784,832.2 623.144,832.2 614.144,778.25 667.354,778.25 		"/>
		<polygon fill="#622136" points="693.424,484.02 710.304,487.42 710.304,483.17 718.943,486.71 714.664,494.17 707.534,492.69 
			686.294,488.29 681.154,484.01 680.754,483.68 693.424,481.45 		"/>
		<polygon fill="#622136" points="607.264,187.65 649.264,137.75 652.814,140.48 645.724,152.57 648.094,154.46 692.514,90.4 
			700.464,85.85 704.943,90.33 706.254,91.64 706.504,92.81 701.653,93.85 658.174,153.27 661.214,155.75 707.954,101.97 
			718.534,97.72 718.534,103.06 716.924,103.46 635.894,194.9 631.974,192.37 649.094,161.24 642.844,157 602.974,205.73 
			597.054,199.81 606.614,188.42 		"/>
		<polygon fill="#AC6932" points="653.554,537.96 671.474,526.5 683.574,523.99 684.094,526.5 684.094,531.13 706.813,537.81 
			715.964,540.5 708.594,540.5 702.764,540.5 698.154,540.72 692.924,540.97 683.224,541.43 677.064,541.72 668.654,542.13 
			657.434,542.66 649.374,540.63 		"/>
		<polygon points="645.084,88.17 643.264,88.17 641.974,86.85 651.764,77.28 713.474,65.79 714.403,72.25 714.534,73.17 
			707.403,74.19 694.054,76.15 682.004,77.92 668.214,79.95 661.504,86.58 656.114,91.9 634.744,113.03 633.444,111.73 
			654.594,88.17 		"/>
		<polygon fill="#622136" points="677.424,62.37 656.144,62.37 648.094,62.37 648.094,55.75 692.214,55.75 694.054,55.75 
			704.034,55.75 704.034,60.81 704.034,61.1 683.924,62.37 683.924,65.79 695.504,65.79 704.034,65.79 713.474,65.79 651.764,77.28 
			661.514,67.87 677.424,67.87 677.424,67.31 		"/>
		<polygon fill="#933536" points="684.394,359.14 676.444,348.25 679.344,348.25 680.554,348.25 686.034,348.25 686.034,337.42 
			696.904,352.36 710.863,371.54 707.824,385.96 694.314,395.29 691.974,391.66 688.824,386.75 695.674,386.75 696.954,386.75 
			701.214,386.75 701.214,380.45 696.954,379.92 690.434,379.12 686.314,378.61 686.314,381.68 686.314,382.82 677.974,369.63 
			674.874,368.66 		"/>
		<polygon points="710.304,483.17 710.304,487.42 693.424,484.02 693.424,481.45 702.304,479.88 		"/>
		<polygon points="652.814,140.48 649.264,137.75 607.264,187.65 605.394,185.98 668.334,104.49 680.634,88.58 708.563,77.84 
			708.714,78.31 709.494,80.7 700.464,85.85 692.514,90.4 648.094,154.46 645.724,152.57 		"/>
		<polygon fill="#622136" points="700.344,543.51 698.154,540.72 702.764,540.5 708.594,540.5 708.594,543.72 700.504,543.72 		"/>
		<polygon fill="#7A519F" points="694.054,80.61 694.054,76.15 707.403,74.19 708.563,77.84 680.634,88.58 681.464,87.5 
			684.034,84.19 		"/>
		<polygon fill="#F16690" points="694.314,395.29 707.824,385.96 703.254,407.63 689.004,407.63 689.004,406.96 691.974,402.05 
			691.974,391.66 		"/>
		<polygon fill="#969E3C" points="690.844,492.11 687.594,489.38 686.294,488.29 707.534,492.69 707.534,513.45 700.794,515.04 
			690.844,505.08 		"/>
		<polygon fill="#F16690" points="685.154,604.25 685.154,611.08 672.554,611.08 672.554,604.25 672.554,586 672.554,585.73 
			697.224,597.87 707.514,597.87 707.514,604.25 		"/>
		<polygon fill="#969E3C" points="706.813,526.5 706.813,537.81 684.094,531.13 684.094,526.5 		"/>
		<polygon fill="#969E3C" points="704.034,61.1 704.034,65.79 695.504,65.79 683.924,65.79 683.924,62.37 		"/>
		<polygon fill="#FFD54C" points="672.374,407.63 672.994,407.63 689.004,407.63 703.254,407.63 699.474,425.56 686.794,437.5 
			644.094,437.5 644.094,419.84 618.214,408.5 616.234,407.63 656.714,407.63 		"/>
		<polygon fill="#F7931E" points="686.034,337.42 676.474,324.29 671.524,317.5 686.584,317.5 691.514,317.5 702.023,330.67 
			700.594,330.67 696.904,330.67 696.904,352.36 		"/>
		<polygon fill="#622136" points="701.414,144.31 679.694,178.36 676.024,175.84 695.954,144.31 		"/>
		<polygon fill="#D8365A" points="701.214,380.45 701.214,386.75 696.954,386.75 696.954,379.92 		"/>
		<polygon fill="#9DCB3B" points="690.844,505.08 700.794,515.04 690.844,517.39 690.844,517.33 		"/>
		<polygon points="700.204,543.72 699.044,545.58 698.594,545.58 696.514,545.58 692.924,540.97 698.154,540.72 700.344,543.51 		
			"/>
		<polygon fill="#E2DFD3" points="572.264,465.35 572.264,482.63 561.694,482.63 561.694,450.85 579.934,432.6 570.634,420.71 
			570.634,393.63 570.634,392.71 580.674,392.71 581.504,392.71 586.314,392.71 589.094,392.71 594.384,392.71 594.384,392.72 
			594.384,398.02 595.474,398.5 616.224,407.63 616.234,407.63 618.214,408.5 644.094,419.84 644.094,437.5 686.794,437.5 
			699.474,425.56 697.154,436.53 671.974,461.87 671.974,453.62 671.974,448.04 637.394,482.63 593.474,482.63 594.214,481.6 
			624.874,439.4 598.214,439.4 		"/>
		<rect x="696.514" y="554.87" fill="#A64E30" width="2.08" height="2.05"/>
		<polygon fill="#B6753B" points="698.594,546.56 698.594,554.87 696.514,554.87 696.514,552.35 696.514,546.84 696.514,545.58 
			698.594,545.58 		"/>
		<polygon fill="#D8365A" points="696.954,379.92 696.954,386.75 695.674,386.75 690.434,379.12 		"/>
		<polygon fill="#9DCB3B" points="682.134,555.21 682.134,552.35 684.714,552.35 696.514,552.35 696.514,554.87 696.514,556.92 		
			"/>
		<polygon fill="#FFFFFF" points="696.514,546.84 696.514,552.35 684.714,552.35 684.714,548.08 		"/>
		<polygon fill="#869C3B" points="682.264,544.33 683.224,541.43 692.924,540.97 696.514,545.58 696.514,546.84 684.714,548.08 
			682.134,548.35 682.134,544.72 		"/>
		<polygon fill="#D8365A" points="695.674,386.75 688.824,386.75 686.744,383.5 686.314,382.82 686.314,381.68 686.314,378.61 
			690.434,379.12 		"/>
		<polygon points="683.514,697.75 631.594,668 624.554,661 632.514,661 634.844,663.24 641.084,669.23 663.204,680.88 
			667.074,682.92 695.214,697.75 685.904,697.75 685.904,699.12 		"/>
		<polygon fill="#8A68AD" points="680.634,88.58 668.334,104.49 664.784,100.94 675.594,86.58 682.004,77.92 694.054,76.15 
			694.054,80.61 684.034,84.19 681.464,87.5 		"/>
		<polygon fill="#9DCB3B" points="648.094,55.75 644.164,55.75 661.794,49.13 692.214,49.13 692.214,55.75 		"/>
		<polygon fill="#933536" points="687.364,392.91 685.224,389.34 683.334,386.19 686.314,386.45 686.314,382.82 686.744,383.5 
			688.824,386.75 691.974,391.66 691.974,402.05 689.004,406.96 689.004,395.63 		"/>
		<polygon fill="#E2DFD3" points="630.474,312.41 631.154,311.75 636.534,306.58 659.854,284.17 671.554,272.92 691.514,272.92 
			691.514,317.5 686.584,317.5 671.524,317.5 655.344,317.5 644.154,317.5 625.204,317.5 626.094,316.63 		"/>
		<polygon fill="#FFFFFF" points="690.844,517.39 690.844,522.49 683.574,523.99 671.474,526.5 653.554,537.96 651.344,537.96 
			651.344,530.37 654.924,525.87 		"/>
		<polygon fill="#FFD54C" points="690.844,517.33 690.844,517.39 654.924,525.87 651.344,530.37 651.344,515.21 651.344,502.63 
			651.344,497.58 683.344,497.58 690.844,505.08 		"/>
		<polygon fill="#40C4E0" points="678.594,486.71 685.264,488.08 686.294,488.29 687.594,489.38 690.844,492.11 690.844,505.08 
			683.344,497.58 651.344,497.58 651.344,488.13 666.514,472.95 666.514,476 		"/>
		<polygon fill="#FFFFFF" points="643.214,629.46 643.214,614.44 689.684,629.78 684.704,639.42 681.534,639.42 643.214,639.42 		
			"/>
		<polygon fill="#F16690" points="684.384,400.35 684.384,392.91 684.924,392.91 687.364,392.91 689.004,395.63 689.004,406.96 
			689.004,407.63 672.994,407.63 672.374,407.63 		"/>
		<polygon fill="#8A68AD" points="684.384,392.91 679.844,392.91 679.624,392.91 679.624,389.34 685.224,389.34 687.364,392.91 
			684.924,392.91 		"/>
		<path d="M612.874,372.24l-12.45,5.39v-3.3l25.34-10.62h30.83h2.37l15.91,4.95l3.1,0.97l8.34,13.19v3.63l-2.98-0.26l-1.74-0.14
			l-1.5-3.07h-3.62v2.63l-0.8-0.06l-10.05-0.85l8.97-1.62v-1.94v-0.56l-6.19-3.78l-7.24-4.43l-2.6,1.22l1.05,4.49l-1.43,5.99
			l-0.09-0.01l-27.43-1.06l-1.34-3.1l-0.66-4.82h-3.19l-2.59,3.02v4.6l-4.21-0.16l-6.15,0.64l-12.72,1.32v-2.01l13.07-7.37
			l7.18-4.04h5.96v-3.54h-2.27L612.874,372.24z M649.754,374.33v-3.46h-4.54v3.46H649.754z"/>
		<polygon fill="#933536" points="671.974,471.41 671.974,476.41 680.754,483.68 681.154,484.01 686.294,488.29 685.264,488.08 
			678.594,486.71 666.514,476 666.514,472.95 666.514,461.87 671.974,461.87 		"/>
		<polygon points="627.694,337.44 640.784,324.29 655.344,324.29 676.474,324.29 686.034,337.42 686.034,348.25 680.554,348.25 
			679.344,348.25 679.344,336.63 673.264,336.63 673.264,342.25 668.474,339.66 671.284,333.13 666.694,330.92 663.634,338.25 
			661.374,336.98 664.814,329.04 658.304,329.04 658.304,332.79 640.094,332.79 640.094,337.44 633.154,337.44 633.154,343.5 
			618.214,343.5 618.214,337.44 		"/>
		<polygon fill="#AC6932" points="685.904,723.81 685.904,733.82 662.094,712.06 662.094,702.42 662.094,697.75 683.514,697.75 
			685.904,699.12 		"/>
		<polygon fill="#933536" points="676.474,385.61 681.594,386.05 683.334,386.19 685.224,389.34 679.624,389.34 675.674,389.34 
			675.674,385.55 		"/>
		<polygon fill="#FFFFFF" points="682.134,552.21 682.134,548.35 684.714,548.08 684.714,552.35 682.134,552.35 		"/>
		<polygon fill="#FFD54C" points="684.704,639.42 673.564,661 643.214,661 643.214,639.42 681.534,639.42 		"/>
		<polygon fill="#D22255" points="658.964,363.71 656.594,363.71 656.594,354.42 656.594,353.67 656.594,343.5 658.594,343.5 
			661.764,346.67 675.294,346.67 676.444,348.25 684.394,359.14 674.874,368.66 		"/>
		<polygon fill="#AC6932" points="679.624,392.91 679.844,392.91 684.384,392.91 684.384,400.35 672.374,407.63 656.714,407.63 
			675.674,396.1 675.674,392.91 		"/>
		<polygon fill="#F6B328" points="672.554,575.42 652.094,565.94 652.094,565.13 652.094,559.87 652.094,557.75 676.154,568.37 
			683.344,568.37 684.094,568.37 684.094,580.77 		"/>
		<polygon fill="#FFFFFF" points="668.654,556.62 684.094,562.87 684.094,567.92 684.094,568.37 683.344,568.37 676.154,568.37 
			652.094,557.75 652.094,556.62 		"/>
		<polygon fill="#933536" points="654.594,715.14 597.594,661 597.594,647.69 597.594,634.17 624.554,661 631.594,668 
			683.514,697.75 662.094,697.75 662.094,702.42 662.094,712.06 662.094,713 662.094,715.14 654.604,715.14 		"/>
		<polygon points="683.224,541.43 682.264,544.33 679.674,544.33 677.064,541.72 		"/>
		<polygon fill="#933536" points="680.064,548.72 680.064,544.72 679.674,544.33 682.264,544.33 682.134,544.72 682.134,548.35 
			682.134,552.21 680.064,552.21 680.064,550.07 		"/>
		<polygon fill="#933536" points="682.134,552.35 682.134,555.21 680.064,555.21 680.064,552.21 682.134,552.21 		"/>
		<polygon fill="#622136" points="666.844,86.58 666.134,86.58 661.504,86.58 668.214,79.95 682.004,77.92 675.594,86.58 		"/>
		<polygon fill="#622136" points="680.094,382.98 681.594,386.05 676.474,385.61 676.474,382.98 		"/>
		<polygon fill="#9DCB3B" points="680.064,552.21 680.064,555.21 669.124,555.21 668.654,555.21 668.654,551.94 671.684,551.94 
			678.194,551.94 680.064,550.07 		"/>
		<polygon fill="#FFFFFF" points="680.064,548.72 680.064,550.07 678.194,551.94 671.684,551.94 671.684,548.72 		"/>
		<polygon fill="#869C3B" points="679.674,544.33 680.064,544.72 680.064,548.72 671.684,548.72 668.654,548.72 668.654,542.13 
			677.064,541.72 		"/>
		<polygon fill="#8A68AD" points="676.024,175.84 679.694,178.36 647.714,228.5 644.364,225.93 		"/>
		<rect x="675.674" y="389.34" fill="#9F73B2" width="3.95" height="3.57"/>
		<polygon points="646.954,343.5 633.154,343.5 633.154,337.44 640.094,337.44 640.094,332.79 658.304,332.79 658.304,329.04 
			664.814,329.04 661.374,336.98 663.634,338.25 666.694,330.92 671.284,333.13 668.474,339.66 673.264,342.25 673.264,336.63 
			679.344,336.63 679.344,348.25 676.444,348.25 675.294,346.67 661.764,346.67 658.594,343.5 656.594,343.5 		"/>
		<polygon fill="#9DCB3B" points="671.554,272.92 659.854,284.17 642.424,284.17 640.414,284.17 663.424,262.25 663.424,245.92 
			678.184,231.6 678.184,240.75 678.184,256.5 678.184,266.55 		"/>
		<polygon fill="#C67B36" points="654.594,742.42 677.514,765.33 660.464,765.33 665.924,775.58 667.354,778.25 614.144,778.25 
			613.264,773 599.254,687.08 654.054,741.88 		"/>
		<polygon fill="#E85825" points="598.424,147.16 598.974,147.71 600.424,149.05 597.904,151.77 592.814,146.68 606.644,113.18 
			649.184,69.37 651.244,67.25 656.144,62.37 677.424,62.37 677.424,67.31 677.424,67.87 661.514,67.87 651.764,77.28 
			641.974,86.85 614.804,113.42 597.034,145.77 		"/>
		<polygon fill="#B6753B" points="671.524,317.5 676.474,324.29 655.344,324.29 655.344,317.5 		"/>
		<polygon fill="#933536" points="651.354,397.62 656.054,392.91 675.374,392.91 675.674,392.91 675.674,396.1 656.714,407.63 
			656.714,401.77 630.784,401.77 630.784,397.62 		"/>
		<polygon fill="#F7931E" points="656.054,392.91 651.354,397.62 630.784,397.62 626.044,392.88 620.524,387.37 621.474,387.37 
			657.404,387.37 658.094,384.46 658.184,384.07 663.824,384.54 665.624,384.7 675.674,385.55 675.674,389.34 675.674,392.91 
			675.374,392.91 		"/>
		<polygon points="605.394,167.78 610.114,154.46 659.534,95.32 666.844,86.58 675.594,86.58 664.784,100.94 601.974,184.37 
			600.054,182.85 		"/>
		<polygon fill="#6D6E71" points="674.594,381.14 674.594,383.08 668.714,383.08 670.664,381.14 		"/>
		<polygon fill="#58595B" points="670.664,381.14 668.714,383.08 674.594,383.08 665.624,384.7 663.824,384.54 668.404,379.74 
			668.404,376.8 674.594,380.58 674.594,381.14 		"/>
		<polygon fill="#F16690" points="643.214,661 673.564,661 673.344,661.42 663.204,680.88 641.084,669.23 634.844,663.24 
			636.594,661.42 636.594,661 642.654,661 		"/>
		<polygon fill="#FFFFFF" points="672.554,585.73 672.554,586 652.094,586 652.094,575.75 652.094,566.56 652.094,565.94 
			672.554,575.42 		"/>
		<polygon fill="#9DCB3B" points="671.974,453.62 671.974,461.87 666.514,461.87 666.514,458.85 		"/>
		<polygon fill="#F16690" points="609.694,497.58 597.594,513.04 597.594,532.52 579.234,517.34 579.234,517.33 584.844,517.33 
			584.844,504.77 577.474,504.77 593.474,482.63 637.394,482.63 671.974,448.04 671.974,453.62 666.514,458.85 666.514,461.87 
			666.514,472.95 651.344,488.13 651.344,497.58 650.094,497.58 646.344,497.58 610.534,497.58 		"/>
		<rect x="668.654" y="548.72" fill="#FFFFFF" width="3.03" height="3.221"/>
		<polygon fill="#DE5C8E" points="652.094,557.75 652.094,559.87 652.094,565.13 652.094,565.94 643.214,561.82 643.214,561.42 
			643.214,549.26 666.474,555.21 668.654,555.21 668.654,555.69 668.654,556.62 652.094,556.62 		"/>
		<polygon points="657.434,542.66 668.654,542.13 668.654,548.72 668.654,551.94 668.654,555.21 666.474,555.21 643.214,549.26 
			643.214,544.57 649.374,540.63 		"/>
		<path fill="#6D6E71" d="M659.614,378.08l-1.05-4.49l2.6-1.22l7.24,4.43v2.94l-4.58,4.8l-5.64-0.47L659.614,378.08z
			 M666.874,379.19l-4.84-3.25v5.74h2.47L666.874,379.19z"/>
		<polygon fill="#D22255" points="564.554,234.67 570.214,203.63 575.184,176.65 581.474,176.65 581.474,199.67 581.474,202.17 
			584.554,202.17 587.764,183.81 591.874,183.81 599.714,183.81 600.054,182.85 601.974,184.37 664.784,100.94 668.334,104.49 
			605.394,185.98 607.264,187.65 606.614,188.42 597.054,199.81 602.974,205.73 586.954,225.31 585.014,223.42 573.214,223.42 
			573.214,226.75 573.214,237 564.594,245.62 564.594,244.63 		"/>
		<polygon fill="#939598" points="666.874,379.19 664.504,381.68 662.034,381.68 662.034,375.94 		"/>
		<polygon fill="#8A68AD" points="666.844,86.58 659.534,95.32 656.114,91.9 661.504,86.58 666.134,86.58 		"/>
		<polygon fill="#C67B36" points="597.594,811.75 597.594,778.25 611.264,778.25 614.144,778.25 623.144,832.2 665.784,832.2 
			665.784,860.17 589.454,839.13 586.264,811.75 		"/>
		<polygon fill="#F7931E" points="663.424,245.92 663.424,262.25 640.414,284.17 623.994,284.17 		"/>
		<polygon fill="#FFD54C" points="659.854,284.17 636.534,306.58 630.474,306.58 627.264,306.58 616.884,306.58 640.414,284.17 
			642.424,284.17 		"/>
		<polygon fill="#622136" points="600.394,167.78 592.134,182.13 590.404,182.13 592.954,167.78 589.844,167.78 585.674,167.78 
			584.104,167.78 592.814,146.68 597.904,151.77 600.424,149.05 624.204,123.36 620.324,119.48 645.084,88.17 654.594,88.17 
			633.444,111.73 634.744,113.03 656.114,91.9 659.534,95.32 610.114,154.46 605.394,167.78 		"/>
		<polygon fill="#933536" points="620.524,387.37 599.804,387.37 594.384,392.71 594.384,387.03 612.524,383.18 618.674,382.54 
			622.884,382.7 630.664,383 658.094,384.06 658.184,384.07 658.094,384.46 657.404,387.37 621.474,387.37 		"/>
		<polygon fill="#933536" points="630.784,401.77 656.714,401.77 656.714,407.63 616.234,407.63 616.224,407.63 616.224,401.77 		
			"/>
		<polygon fill="#F16690" points="617.174,355.08 605.404,359.75 605.404,343.5 618.214,343.5 633.154,343.5 646.954,343.5 
			656.594,354.42 656.594,363.71 625.764,363.71 624.214,363.71 617.174,363.71 		"/>
		<polygon fill="#F16690" points="656.594,353.67 656.594,354.42 646.954,343.5 656.594,343.5 		"/>
		<polygon fill="#969E3C" points="621.054,74.8 618.594,69.37 618.054,68.14 617.074,65.92 617.844,65.63 644.164,55.75 
			648.094,55.75 648.094,62.37 656.144,62.37 651.244,67.25 649.184,69.37 638.784,69.37 616.784,93.67 616.784,82.83 
			607.094,94.18 607.094,90.55 607.094,85.02 		"/>
		<polygon fill="#A64E30" points="640.784,324.29 618.214,324.29 625.204,317.5 644.154,317.5 655.344,317.5 655.344,324.29 		"/>
		<polygon fill="#AC6932" points="654.594,715.14 654.594,742.42 654.054,741.88 599.254,687.08 597.594,676.89 597.594,661 		"/>
		<polygon fill="#622136" points="643.214,549.26 643.214,561.42 642.984,561.71 642.344,561.42 637.534,559.18 637.534,548.5 
			651.344,530.37 651.344,537.96 653.554,537.96 649.374,540.63 643.214,544.57 		"/>
		<polygon fill="#F16690" points="627.344,561.85 627.344,573.75 633.464,573.75 642.984,561.72 643.214,561.82 643.214,562.58 
			643.214,614.44 633.824,611.34 633.824,594.28 621.424,581.89 621.424,573.75 621.424,542.78 621.424,530.37 627.144,522.84 
			627.144,538.25 636.464,538.25 641.264,516.75 635.764,516.75 631.774,516.75 646.344,497.58 650.094,497.58 651.344,497.58 
			651.344,502.63 651.344,515.21 651.344,530.37 637.534,548.5 637.054,549.13 633.424,553.87 		"/>
		<rect x="645.214" y="370.87" fill="#6D6E71" width="4.54" height="3.46"/>
		<polygon points="584.954,132.28 571.934,155.16 570.214,154.09 581.844,124.79 578.654,124.79 572.974,135.87 568.534,135.87 
			583.894,108.5 578.644,113.06 576.814,113.06 594.654,90.55 603.594,90.55 603.594,102.64 608.664,102.64 616.784,93.67 
			638.784,69.37 649.184,69.37 606.644,113.18 592.814,146.68 584.104,167.78 581.474,167.78 581.474,159.19 578.404,159.19 
			575.184,176.65 570.214,203.63 568.344,203.63 568.344,170.68 588.694,134.7 595.304,123 598.914,116.62 598.914,111.21 
			596.944,111.21 591.664,120.49 		"/>
		<polygon fill="#9DCB3B" points="604.914,516.75 610.344,573.75 611.344,573.75 612.844,573.75 621.424,573.75 621.424,581.89 
			621.424,590.52 628.344,597.44 628.344,609.53 633.824,611.34 643.214,614.44 643.214,629.46 633.594,629.46 633.594,639.42 
			632.334,642 597.594,624.99 597.594,617.75 597.594,615.44 597.594,532.52 597.594,513.04 609.694,497.58 610.534,497.58 
			646.344,497.58 631.774,516.75 627.844,516.75 612.844,516.75 		"/>
		<polygon points="620.324,119.48 598.424,147.16 597.034,145.77 614.804,113.42 641.974,86.85 643.264,88.17 645.084,88.17 		"/>
		<polygon fill="#9DCB3B" points="643.214,639.42 643.214,661 642.654,661 636.594,661 636.594,644.08 632.334,642 633.594,639.42 
			642.764,639.42 		"/>
		<polygon fill="#FFFFFF" points="643.214,629.46 643.214,639.42 642.764,639.42 633.594,639.42 633.594,629.46 		"/>
		<polygon fill="#414042" points="643.214,561.42 643.214,561.82 642.984,561.72 642.984,561.71 		"/>
		<polygon fill="#9F73B2" points="637.534,559.18 642.344,561.42 642.984,561.71 642.984,561.72 633.464,573.75 627.344,573.75 
			627.344,561.85 633.424,553.87 637.054,549.13 637.534,548.5 		"/>
		<polygon fill="#F16690" points="641.264,516.75 636.464,538.25 627.144,538.25 627.144,522.84 631.774,516.75 635.764,516.75 		
			"/>
		<polygon fill="#933536" points="605.404,343.5 594.384,343.5 594.384,335.35 607.154,335.35 618.214,324.29 640.784,324.29 
			627.694,337.44 618.214,337.44 618.214,343.5 		"/>
		<polygon fill="#FFD54C" points="586.954,225.31 612.994,250.68 603.524,289.29 608.464,292.58 623.994,271.73 623.994,284.17 
			640.414,284.17 616.884,306.58 602.104,306.58 590.214,290.93 590.214,290.92 590.214,243.87 573.214,226.75 573.214,223.42 
			585.014,223.42 		"/>
		<polygon fill="#F16690" points="632.514,661 597.594,627.5 597.594,624.99 632.334,642 636.594,644.08 636.594,661 
			636.594,661.42 634.844,663.24 		"/>
		<polygon fill="#FFFFFF" points="636.534,306.58 631.154,311.75 630.474,312.41 630.474,306.58 		"/>
		<polygon fill="#F7931E" points="628.344,597.44 621.424,590.52 621.424,581.89 633.824,594.28 633.824,611.34 628.344,609.53 		
			"/>
		<polygon fill="#622136" points="597.594,634.17 579.504,616.17 597.094,624.75 597.594,624.99 597.594,627.5 632.514,661 
			624.554,661 		"/>
		<polygon fill="#FFFFFF" points="627.144,522.84 621.424,530.37 621.424,542.78 612.844,542.78 612.844,516.75 627.844,516.75 
			631.774,516.75 		"/>
		<polygon fill="#9F73B2" points="630.784,397.62 630.784,401.77 616.224,401.77 616.224,407.63 595.474,398.5 601.094,392.88 
			626.044,392.88 		"/>
		<polygon fill="#6D6E71" points="630.664,383 622.884,382.7 622.884,378.1 625.474,375.08 628.664,375.08 629.324,379.9 		"/>
		<polygon fill="#FFFFFF" points="550.604,319.76 564.594,300.58 564.594,249.25 564.594,245.62 573.214,237 573.214,226.75 
			590.214,243.87 590.214,290.92 590.214,290.93 590.214,292.92 590.214,306.58 602.104,306.58 616.884,306.58 627.264,306.58 
			630.474,306.58 630.474,312.41 626.094,316.63 625.204,317.5 618.214,324.29 605.514,324.29 597.254,332.5 588.214,332.5 
			570.634,352.2 570.634,379.41 570.634,379.42 570.634,392.71 570.104,392.71 555.094,392.71 540.924,392.71 540.924,333.05 		"/>
		<polygon fill="#E6E7E8" points="626.044,392.88 601.094,392.88 595.474,398.5 594.384,398.02 594.384,392.72 594.384,392.71 
			599.804,387.37 620.524,387.37 		"/>
		<polygon fill="#622136" points="626.014,367.54 626.014,371.08 620.054,371.08 612.874,375.12 612.874,372.24 623.744,367.54 		
			"/>
		<polygon fill="#9F73B2" points="594.384,364.15 594.384,344.37 594.384,343.5 605.404,343.5 605.404,359.75 617.174,355.08 
			617.174,363.71 624.214,363.71 625.764,363.71 600.424,374.33 597.424,375.59 594.384,376.86 593.964,377.04 588.304,379.41 
			581.844,379.41 581.844,369.16 		"/>
		<polygon fill="#FFFFFF" points="624.874,439.4 594.214,481.6 593.474,482.63 592.474,482.63 572.264,482.63 572.264,465.35 
			598.214,439.4 		"/>
		<polygon fill="#7A519F" points="624.204,123.36 600.424,149.05 598.974,147.71 598.424,147.16 620.324,119.48 		"/>
		<polygon fill="#E6E7E8" points="621.424,542.78 621.424,573.75 612.844,573.75 612.844,543.28 612.844,542.78 		"/>
		<polygon fill="#622136" points="594.654,90.55 594.654,90 594.654,81.94 590.094,81.94 618.054,68.14 618.594,69.37 621.054,74.8 
			607.094,85.02 607.094,90.55 604.424,90.55 603.594,90.55 		"/>
		<polygon fill="#F7931E" points="597.254,332.5 605.514,324.29 618.214,324.29 607.154,335.35 594.384,335.35 		"/>
		<polygon fill="#9DCB3B" points="565.074,101.87 556.444,101.87 553.824,109.17 551.014,109.17 551.014,98.06 561.404,98.06 
			558.384,96.08 558.384,88.17 617.074,65.92 618.054,68.14 590.094,81.94 594.654,81.94 594.654,90 588.674,90 587.344,90 
			565.534,90 565.534,91.69 573.974,96.58 573.974,99.63 569.594,99.63 565.074,113.06 565.074,103.91 		"/>
		<polygon fill="#622136" points="607.094,94.18 616.784,82.83 616.784,93.67 608.664,102.64 603.594,102.64 603.594,90.55 
			604.424,90.55 607.094,90.55 		"/>
		<polygon fill="#F7A8A6" points="583.164,785.37 576.584,727.89 561.384,595.13 570.844,595.13 571.774,595.13 577.114,613.8 
			579.504,616.17 597.594,634.17 597.594,647.69 597.594,661 597.594,676.89 599.254,687.08 613.264,773 614.144,778.25 
			611.264,778.25 597.594,778.25 597.594,811.75 586.264,811.75 583.264,786.25 		"/>
		<polygon fill="#933536" points="599.804,382.49 594.384,385.54 594.384,376.86 597.424,375.59 597.424,378.92 600.424,377.63 
			612.874,372.24 612.874,375.12 		"/>
		<polygon fill="#E6E7E8" points="612.844,542.78 612.844,543.28 612.844,573.75 611.344,573.75 610.344,573.75 604.914,516.75 
			612.844,516.75 		"/>
		<polygon fill="#622136" points="612.524,383.18 594.384,387.03 594.384,385.54 599.804,382.49 599.804,384.5 		"/>
		<polygon fill="#E85825" points="592.134,182.13 600.394,167.78 605.394,167.78 600.054,182.85 599.714,183.81 591.874,183.81 
			591.874,182.58 		"/>
		<polygon fill="#FFD54C" points="590.214,290.93 602.104,306.58 590.214,306.58 590.214,292.92 		"/>
		<polygon fill="#622136" points="600.424,374.33 600.424,377.63 597.424,378.92 597.424,375.59 		"/>
		<polygon fill="#933536" points="598.914,111.21 598.914,116.62 595.304,123 591.664,120.49 596.944,111.21 		"/>
		<polygon fill="#F16690" points="597.594,617.75 597.594,624.99 597.094,624.75 579.504,616.17 577.114,613.8 571.774,595.13 
			577.944,595.13 597.594,615.44 		"/>
		<polygon fill="#F7931E" points="577.944,595.13 571.774,595.13 565.124,571.87 579.234,571.87 579.234,567.79 579.234,564.67 
			579.234,517.34 597.594,532.52 597.594,615.44 		"/>
		<polygon fill="#9DCB3B" points="581.844,369.16 581.844,379.41 570.634,379.41 570.634,352.2 588.214,332.5 597.254,332.5 
			594.384,335.35 594.384,343.5 594.384,344.37 594.384,364.15 		"/>
		<polygon fill="#A64E30" points="595.304,123 588.694,134.7 584.954,132.28 591.664,120.49 		"/>
		<polygon fill="#AC6932" points="587.344,91.48 587.344,90 588.674,90 594.654,90 594.654,90.55 576.814,113.06 576.264,113.06 
			574.864,112.22 		"/>
		<polygon fill="#8A68AD" points="589.094,383.83 578.674,383.83 586.314,392.71 581.504,392.71 570.634,379.42 570.634,379.41 
			581.844,379.41 588.304,379.41 593.964,377.04 594.384,376.86 594.384,385.54 594.384,387.03 594.384,392.71 589.094,392.71 		"/>
		<polygon fill="#FFFFFF" points="547.174,469.84 547.174,454.53 540.924,442.05 540.924,392.71 555.094,392.71 570.104,392.71 
			570.634,392.71 570.634,393.63 570.634,420.71 579.934,432.6 561.694,450.85 561.694,482.63 572.264,482.63 592.474,482.63 
			593.474,482.63 577.474,504.77 575.844,507.02 575.844,514.53 575.844,554.29 560.094,554.29 547.174,509.65 547.174,470.5 		"/>
		<polygon fill="#E85825" points="584.104,167.78 585.674,167.78 589.844,167.78 592.954,167.78 590.404,182.13 592.134,182.13 
			591.874,182.58 591.874,183.81 587.764,183.81 584.554,202.17 581.474,202.17 581.474,199.67 581.474,176.65 575.184,176.65 
			578.404,159.19 581.474,159.19 581.474,167.78 		"/>
		<polygon fill="#F7A8A6" points="553.014,774.95 555.164,771.25 575.174,771.25 576.904,785.37 583.164,785.37 583.264,786.25 
			586.264,811.75 589.454,839.13 586.264,838.25 519.344,796.25 		"/>
		<polygon fill="#9F73B2" points="589.094,383.83 589.094,392.71 586.314,392.71 578.674,383.83 		"/>
		<polygon fill="#933536" points="576.814,113.06 578.644,113.06 583.894,108.5 568.534,135.87 572.974,135.87 578.654,124.79 
			581.844,124.79 570.214,154.09 571.934,155.16 584.954,132.28 588.694,134.7 568.344,170.68 568.344,165.43 568.344,161.06 
			563.094,161.06 563.094,146.74 556.344,161.93 556.344,152.75 550.484,152.75 574.864,112.22 576.264,113.06 		"/>
		<polygon points="530.754,179.72 527.374,153.05 530.384,146.74 538.444,146.74 542.514,137.58 538.014,137.58 538.014,132.17 
			547.764,132.17 541.424,125.83 547.344,125.83 547.344,123.16 543.664,121.21 546.674,115.92 552.674,120.67 554.774,118.57 
			551.904,113.06 552.354,113.06 565.074,113.06 569.594,99.63 573.974,99.63 573.974,96.58 565.534,91.69 565.534,90 587.344,90 
			587.344,91.48 574.864,112.22 550.484,152.75 545.344,161.3 531.364,184.54 		"/>
		<polygon fill="#9F73B2" points="584.844,504.77 584.844,517.33 579.234,517.33 579.224,517.33 575.844,514.53 575.844,507.02 
			577.474,504.77 		"/>
		<polygon fill="#FFFFFF" points="573.854,739.06 572.404,729.51 575.594,728 576.584,727.89 583.164,785.37 576.904,785.37 
			575.174,771.25 555.164,771.25 		"/>
		<polygon fill="#9DCB3B" points="581.504,392.71 580.674,392.71 570.634,392.71 570.634,379.42 		"/>
		<polygon fill="#FFD54C" points="579.224,517.33 579.234,517.33 579.234,517.34 579.234,564.67 579.234,567.79 579.234,571.87 
			565.124,571.87 560.094,554.29 575.844,554.29 575.844,514.53 		"/>
		<polygon fill="#FFFFFF" points="565.124,571.87 571.774,595.13 570.844,595.13 561.384,595.13 576.584,727.89 575.594,728 
			572.404,729.51 547.174,563.21 547.174,547 547.174,512.01 547.174,509.65 560.094,554.29 		"/>
		<polygon fill="#933536" points="555.164,771.25 553.014,774.95 519.344,796.25 505.264,787.25 505.264,761.42 572.404,729.51 
			573.854,739.06 		"/>
		<polygon fill="#9DCB3B" points="570.214,203.63 564.554,234.67 561.344,234.67 560.514,234.67 560.514,217.25 564.784,217.25 
			564.784,203.63 568.344,203.63 		"/>
		<polygon fill="#622136" points="527.424,179.72 527.424,201 533.504,201 531.564,186.09 531.364,184.54 545.344,161.3 
			545.344,199.17 551.634,199.17 547.974,184.13 553.014,184.13 563.094,184.13 563.094,161.06 568.344,161.06 568.344,165.43 
			568.344,170.68 568.344,203.63 564.784,203.63 564.784,217.25 560.514,217.25 560.514,202.17 556.844,202.17 552.674,214.92 
			541.294,202.17 537.704,202.17 537.704,224.99 514.794,213.99 520.134,170.33 526.924,170.33 526.924,166.08 523.054,162.21 
			526.924,154 527.374,153.05 530.754,179.72 		"/>
		<polygon fill="#7A519F" points="553.824,109.17 556.444,101.87 565.074,101.87 565.074,103.91 565.074,113.06 552.354,113.06 
			553.674,109.58 		"/>
		<polygon fill="#AC6932" points="536.424,246 536.424,234.67 559.344,234.67 560.514,234.67 561.344,234.67 564.554,234.67 
			564.594,244.63 564.594,245.62 564.594,249.25 564.594,300.58 550.604,319.76 527.844,297 527.844,254.58 		"/>
		<polygon points="563.094,161.06 563.094,184.13 553.014,184.13 553.014,175.98 558.054,179.25 553.454,168.44 556.344,161.93 
			563.094,146.74 		"/>
		<polygon fill="#622136" points="527.844,254.58 526.424,256 510.344,272.32 510.344,250.39 514.794,213.99 537.704,224.99 
			537.704,202.17 541.294,202.17 552.674,214.92 556.844,202.17 560.514,202.17 560.514,217.25 560.514,234.67 559.344,234.67 
			536.424,234.67 536.424,246 		"/>
		<polygon fill="#969E3C" points="547.974,184.13 551.634,199.17 545.344,199.17 545.344,161.3 550.484,152.75 556.344,152.75 
			556.344,161.93 553.454,168.44 558.054,179.25 553.014,175.98 553.014,184.13 		"/>
		<polygon fill="#933536" points="527.844,297 550.604,319.76 540.924,333.05 510.344,333.05 510.344,272.32 526.424,256 
			527.844,254.58 		"/>
		<polygon fill="#E2DFD3" points="526.624,418.45 529.094,415.75 529.094,400.83 535.594,400.83 535.594,446.28 547.174,469.84 
			547.174,470.5 547.174,509.65 545.924,505.33 540.734,487.25 540.424,486.17 537.984,477.67 537.714,476.71 531.424,454.75 
			531.424,426.16 519.514,438.06 524.384,468.25 523.654,468.25 522.514,468.25 520.674,461.54 520.384,460.5 512.924,433.42 		"/>
		<polygon fill="#933536" points="535.594,391.81 510.344,354.94 510.344,333.05 540.924,333.05 540.924,392.71 540.924,442.05 
			547.174,454.53 547.174,469.84 535.594,446.28 535.594,400.83 		"/>
		<polygon points="524.114,498.73 529.564,493.28 529.564,486.09 537.984,477.67 540.424,486.17 540.734,487.25 534.094,487.25 
			534.094,507.63 527.934,509.97 516.664,498.69 520.364,494.98 		"/>
		<polygon fill="#EB899C" points="504.394,480.08 502.014,480.08 502.014,473.56 497.314,473.56 493.214,465.25 498.594,465.25 
			500.094,468.25 522.514,468.25 523.654,468.25 524.384,468.25 519.514,438.06 531.424,426.16 531.424,454.75 537.714,476.71 
			537.984,477.67 529.564,486.09 529.564,493.28 524.114,498.73 520.364,494.98 516.664,498.69 516.654,498.69 515.014,497.04 
			515.014,485.13 513.354,486.22 		"/>
		<polygon fill="#FEE0CB" points="529.094,396.03 521.814,388.75 517.094,388.75 517.094,400.83 514.344,400.83 501.764,382.83 
			493.804,371.47 510.344,354.94 535.594,391.81 535.594,400.83 529.094,400.83 		"/>
		<polygon fill="#969E3C" points="531.364,184.54 531.564,186.09 533.504,201 527.424,201 527.424,179.72 530.754,179.72 		"/>
		<polygon fill="#A64E30" points="517.094,400.83 517.094,388.75 521.814,388.75 529.094,396.03 529.094,400.83 529.094,415.75 
			526.624,418.45 514.344,400.83 		"/>
		<polygon fill="#9F73B2" points="516.654,498.69 516.664,498.69 527.934,509.97 510.094,516.75 501.604,506.81 515.014,506.81 
			515.014,499.69 515.014,497.04 		"/>
		<polygon fill="#933536" points="526.624,418.45 512.924,433.42 511.374,427.87 519.424,418.23 507.824,400.83 514.344,400.83 		
			"/>
		<path fill="#FFFFFF" d="M492.034,454.1l4.19-3.88l-7.34-5.81l-2.69,2.84L492.034,454.1z M507.824,400.83h-5.3l-11.55,19.44v17.69
			l11.04,11.04h10.91v11.5h7.46l0.29,1.04l1.84,6.71h-22.42l-1.5-3h-5.38l4.1,8.31h4.7v6.52h-2.22l-3.04-4.19l-3.82,4.69l8.9,6.53
			l-9.24,5.14l4.08,4.92l-0.41,0.271l-1.71,1.119l-10.96-12.83v-61.6v-11.4l1.75,4.19h1.63l14.79-34.09l12.58,18H507.824z"/>
		<polygon fill="#1E9398" points="442.064,846.75 379.924,846.75 379.924,821.08 454.094,785.71 454.094,817.25 465.864,826.46 
			522.004,914.75 		"/>
		<polygon fill="#A64E30" points="511.374,427.87 512.924,433.42 520.384,460.5 512.924,460.5 512.924,449 502.014,449 
			490.974,437.96 490.974,420.27 502.524,400.83 507.824,400.83 519.424,418.23 		"/>
		<polygon fill="#E2DFD3" points="496.674,497.17 501.714,493.86 501.714,499.69 515.014,499.69 515.014,506.81 501.604,506.81 
			494.554,498.56 496.264,497.44 		"/>
		<polygon fill="#FFFFFF" points="513.354,486.22 515.014,485.13 515.014,497.04 515.014,499.69 501.714,499.69 501.714,493.86 		
			"/>
		<polygon points="499.794,480.08 502.014,480.08 504.394,480.08 513.354,486.22 501.714,493.86 496.674,497.17 492.594,492.25 
			501.834,487.11 492.934,480.58 496.754,475.89 		"/>
		<polygon fill="#FFFFFF" points="483.594,362.88 482.594,362.88 476.844,362.88 476.844,359.37 486.974,349.25 506.454,349.25 
			510.344,354.94 493.804,371.47 487.784,362.88 		"/>
		<polygon fill="#933536" points="493.804,371.47 501.764,382.83 486.974,416.92 485.344,416.92 483.594,412.73 483.594,404.7 
			483.594,362.88 487.784,362.88 		"/>
		<polygon fill="#EB899C" points="496.224,450.22 492.034,454.1 486.194,447.25 488.884,444.41 		"/>
		<polygon fill="#EB899C" points="483.594,404.7 483.594,412.73 476.844,396.56 476.844,362.88 482.594,362.88 483.594,362.88 		"/>
	</g>
	<g>
		<polyline fill="none" stroke="#F7941E" stroke-width="0.25" stroke-miterlimit="10" points="880.674,702.25 885.863,703.24 
			1010.924,727.04 		"/>
		
			<line fill="none" stroke="#F7941E" stroke-width="0.25" stroke-miterlimit="10" x1="454.094" y1="785.71" x2="379.924" y2="821.08"/>
		<polyline fill="none" stroke="#F7941E" stroke-width="0.25" stroke-miterlimit="10" points="1010.924,727.04 1010.924,745.92 
			1010.924,748.25 		"/>
		<polyline fill="none" stroke="#F7941E" stroke-width="0.25" stroke-miterlimit="10" points="1012.264,745.92 1010.924,745.92 
			956.104,745.92 950.264,745.92 		"/>
		<polyline fill="none" stroke="#F7941E" stroke-width="0.25" stroke-miterlimit="10" points="957.764,747.58 956.104,745.92 
			934.174,724 933.674,723.5 		"/>
		<polyline fill="none" stroke="#F7941E" stroke-width="0.25" stroke-miterlimit="10" points="934.844,723.5 934.174,724 
			931.764,725.83 		"/>
		
			<line fill="none" stroke="#F7941E" stroke-width="0.25" stroke-miterlimit="10" x1="931.764" y1="725.83" x2="942.424" y2="745.92"/>
		<polyline fill="none" stroke="#F7941E" stroke-width="0.25" stroke-miterlimit="10" points="942.424,745.92 913.574,745.92 
			905.594,745.92 		"/>
		<polyline fill="none" stroke="#F7941E" stroke-width="0.25" stroke-miterlimit="10" points="914.094,744.79 913.574,745.92 
			872.144,836.5 871.344,838.25 		"/>
		<polyline fill="none" stroke="#F7941E" stroke-width="0.25" stroke-miterlimit="10" points="874.594,836.5 872.144,836.5 
			864.244,836.5 858.304,836.5 		"/>
		<polyline fill="none" stroke="#F7941E" stroke-width="0.25" stroke-miterlimit="10" points="379.924,821.08 379.924,846.75 
			379.924,849.58 		"/>
		<polyline fill="none" stroke="#F7941E" stroke-width="0.25" stroke-miterlimit="10" points="378.094,846.75 379.924,846.75 
			442.064,846.75 446.094,846.75 		"/>
		<polyline fill="none" stroke="#F7941E" stroke-width="0.25" stroke-miterlimit="10" points="440.594,845.5 442.064,846.75 
			522.004,914.75 527.594,919.5 		"/>
		<polyline fill="none" stroke="#F7941E" stroke-width="0.25" stroke-miterlimit="10" points="525.844,920.78 522.004,914.75 
			465.864,826.46 458.094,814.25 		"/>
	</g>
</g>
<text transform="matrix(1 0 0 1 143.8389 706.4844)" fill="#9F73B2" font-family="'Boulder-Regular'" font-size="52.7579">N E Y M A R  J R</text>
<text transform="matrix(1 0 0 1 1281.1836 38.4561)" fill="#34ACB3" font-family="'Impact'" font-size="31.1135"> </text>
<text transform="matrix(1 0 0 1 1286.6699 38.4561)" fill="#34ACB3" font-family="'Impact'" font-size="31.1135"> </text>
<text transform="matrix(1 0 0 1 1292.1563 38.4561)" fill="#34ACB3" font-family="'Impact'" font-size="31.1135"> </text>
</svg>
